<?xml version="1.0" standalone="no"?>
<!DOCTYPE svg PUBLIC "-//W3C//DTD SVG 20010904//EN"
 "http://www.w3.org/TR/2001/REC-SVG-20010904/DTD/svg10.dtd">
<svg version="1.0" xmlns="http://www.w3.org/2000/svg"
 width="750.000000pt" height="500.000000pt" viewBox="0 0 750.000000 500.000000"
 preserveAspectRatio="xMidYMid meet">

<g transform="translate(0.000000,500.000000) scale(0.100000,-0.100000)"
fill="#000000" stroke="none">
<path d="M1 4953 c2 -78 10 -95 56 -112 39 -14 46 -13 79 2 l36 18 -18 27
c-40 62 -97 112 -126 112 -27 0 -28 -2 -27 -47z"/>
<path d="M338 4990 c-9 -6 -40 -11 -67 -11 -31 -1 -51 -6 -51 -13 0 -17 104
-138 152 -176 41 -33 42 -30 6 22 -40 58 -10 95 69 83 56 -8 153 4 153 19 0 7
-23 12 -62 13 -35 1 -80 2 -100 2 -48 1 -50 21 -5 50 l32 21 -55 0 c-30 -1
-63 -5 -72 -10z"/>
<path d="M1090 4974 c0 -31 28 -94 45 -100 16 -6 85 35 85 49 0 7 -14 27 -30
45 -23 24 -38 32 -65 32 -31 0 -35 -3 -35 -26z"/>
<path d="M6670 4986 c0 -30 13 -46 36 -46 14 0 24 6 24 14 0 8 3 21 6 30 5 13
-1 16 -30 16 -24 0 -36 -5 -36 -14z"/>
<path d="M6345 4940 c-3 -5 -2 -10 4 -10 5 0 13 5 16 10 3 6 2 10 -4 10 -5 0
-13 -4 -16 -10z"/>
<path d="M736 4923 c-36 -19 -24 -33 30 -33 49 0 59 18 20 36 -18 8 -30 8 -50
-3z"/>
<path d="M830 4906 c0 -9 7 -16 16 -16 9 0 14 5 12 12 -6 18 -28 21 -28 4z"/>
<path d="M6926 4795 c6 -40 11 -52 18 -44 2 2 -3 22 -10 44 l-13 40 5 -40z"/>
<path d="M185 4773 c-10 -58 -11 -63 -20 -85 -4 -11 -3 -18 4 -18 7 0 17 14
22 30 19 53 44 34 54 -40 12 -88 24 -94 26 -12 1 39 3 80 3 89 1 17 -40 27
-50 11 -3 -4 -9 -6 -14 -3 -6 4 -5 14 2 24 12 19 5 51 -11 51 -5 0 -12 -21
-16 -47z"/>
<path d="M7443 4788 c-49 -19 -65 -46 -20 -34 11 3 29 0 39 -5 19 -10 19 -11
1 -24 -10 -8 -35 -15 -55 -15 -26 0 -41 -6 -52 -22 -15 -20 -16 -21 -34 -5
-16 15 -24 16 -48 7 -45 -17 -256 -61 -269 -56 -7 2 -18 0 -25 -4 -12 -7 -12
-11 0 -25 11 -14 10 -17 -7 -21 -16 -4 -21 -14 -21 -38 0 -71 -59 -139 -167
-192 -65 -32 -68 -34 -32 -31 25 2 37 -1 37 -10 0 -7 -7 -13 -15 -13 -8 0 -15
-4 -15 -9 0 -5 -18 -12 -40 -16 -22 -4 -42 -11 -46 -16 -3 -5 -12 -5 -22 0
-19 10 -202 -17 -202 -29 0 -4 7 -13 15 -20 8 -7 15 -21 15 -31 0 -26 -56 -87
-117 -126 -36 -22 -50 -38 -47 -48 4 -9 -1 -17 -12 -21 -11 -3 -27 -10 -36
-15 -10 -5 -49 -10 -88 -11 -46 -2 -71 -7 -74 -15 -3 -7 -15 -13 -27 -13 -17
0 -20 -4 -16 -22 10 -38 -27 -89 -85 -115 -16 -7 -28 -19 -28 -28 0 -33 128
-10 155 28 20 28 19 32 -9 45 -18 8 -23 16 -19 31 6 25 7 25 45 4 29 -18 30
-18 51 9 24 29 70 49 159 67 31 7 62 19 68 27 12 13 70 21 70 8 0 -26 -28 -44
-102 -64 -46 -13 -87 -27 -92 -32 -6 -4 -18 -8 -27 -8 -10 0 -21 -5 -25 -11
-4 -8 0 -9 15 -4 12 4 21 2 21 -4 0 -6 -7 -11 -15 -11 -8 0 -15 -9 -15 -20 0
-24 -16 -26 -28 -4 -7 13 -19 6 -70 -45 -51 -51 -71 -64 -119 -76 -31 -8 -65
-15 -74 -15 -10 0 -32 -19 -51 -42 -18 -24 -36 -44 -40 -46 -5 -2 -8 -10 -8
-18 0 -12 12 -18 31 -16 4 1 5 -7 2 -18 -3 -11 -9 -18 -13 -15 -4 3 -10 -2
-14 -10 -8 -21 -94 -21 -102 0 -4 8 -17 15 -31 15 -13 0 -21 -4 -18 -10 3 -5
1 -10 -4 -10 -6 0 -11 -7 -11 -15 0 -8 -7 -15 -15 -15 -8 0 -27 -13 -41 -29
-17 -19 -43 -34 -75 -41 -41 -10 -53 -18 -76 -56 -15 -24 -32 -44 -38 -45 -29
-2 -70 -9 -83 -14 -13 -5 -12 -9 6 -26 12 -11 22 -22 22 -25 0 -15 -32 -34
-59 -34 -22 0 -29 -4 -25 -14 3 -7 -2 -20 -10 -29 -8 -8 -14 -17 -13 -19 1 -2
-8 7 -21 20 -13 13 -29 21 -37 18 -19 -7 -19 -26 -1 -26 8 0 22 -9 30 -21 8
-12 19 -18 25 -14 6 3 11 0 11 -7 0 -9 -13 -13 -42 -11 -24 0 -51 -1 -61 -4
-18 -5 -18 -5 0 -18 17 -12 16 -14 -10 -26 -21 -9 -33 -10 -53 0 -14 6 -30 9
-35 6 -19 -12 -8 -23 31 -29 22 -3 40 -11 40 -17 0 -6 -9 -9 -20 -6 -23 6 -90
-12 -90 -25 0 -4 -18 -8 -40 -8 -31 0 -38 -3 -33 -15 3 -9 2 -15 -3 -13 -5 1
-21 -5 -35 -15 -28 -19 -92 -21 -120 -4 -17 11 -49 3 -49 -10 0 -5 14 -14 30
-20 l30 -11 0 -120 c0 -99 -3 -121 -15 -126 -10 -3 -18 1 -21 12 -19 62 -46
69 -42 11 l3 -44 45 -2 c25 -2 56 -4 69 -5 19 -2 26 4 35 30 7 19 19 38 28 43
9 5 74 23 145 39 70 17 135 33 143 37 8 3 18 5 22 5 4 -1 25 4 45 12 21 8 79
24 128 36 93 22 158 38 258 66 57 15 58 17 52 45 -8 36 2 38 15 3 11 -27 27
-28 105 -6 l30 8 0 95 c0 81 2 94 18 97 14 3 17 -5 18 -45 1 -26 1 -68 -1 -91
-2 -39 0 -43 17 -38 31 9 146 37 193 47 25 4 76 17 114 27 58 16 71 24 82 48
12 28 13 28 19 7 8 -26 15 -27 59 -14 85 25 144 41 174 46 24 5 32 12 32 28 0
38 12 67 26 67 9 0 14 -12 14 -36 0 -34 1 -36 28 -30 15 4 45 9 67 12 22 3 49
9 60 14 57 23 123 41 170 45 15 1 21 11 26 38 8 50 18 57 25 18 4 -17 10 -34
14 -36 4 -3 70 11 146 31 77 20 150 38 164 39 14 1 38 8 53 14 16 6 37 11 47
11 44 0 50 10 50 75 0 35 5 67 10 70 12 7 14 1135 2 1135 -4 0 -46 -13 -92
-30 -47 -16 -95 -30 -108 -30 -13 0 -32 -5 -42 -10 -12 -6 -21 -7 -25 -1 -7
12 26 31 53 31 10 0 27 9 37 20 10 11 25 20 33 20 9 0 46 10 84 22 l68 22 0
73 c0 40 -1 72 -2 72 -2 -1 -27 -10 -55 -21z m-250 -278 c-3 -11 -63 -75 -133
-143 l-128 -122 -151 -45 c-83 -24 -151 -50 -151 -56 0 -6 -16 -28 -35 -48
-19 -21 -35 -42 -35 -47 0 -5 -6 -9 -14 -9 -7 0 -19 -7 -26 -15 -7 -8 -25 -15
-39 -15 -15 0 -36 7 -47 15 -19 15 -19 15 0 30 11 8 32 15 47 15 35 0 62 26
54 51 -4 11 -2 19 4 19 6 0 11 -10 12 -22 0 -13 3 -17 6 -10 2 7 28 35 56 62
35 33 61 50 78 50 15 0 42 6 60 14 66 26 74 29 95 32 55 7 194 102 194 132 0
6 4 12 8 12 4 0 38 27 75 60 38 33 70 60 72 60 2 0 1 -9 -2 -20z m-363 -220
c0 -5 -4 -10 -10 -10 -5 0 -10 5 -10 10 0 6 5 10 10 10 6 0 10 -4 10 -10z
m410 -14 c0 -11 -19 -15 -25 -6 -3 5 1 10 9 10 9 0 16 -2 16 -4z m235 -86
c-19 -21 -35 -18 -35 6 0 9 10 14 27 14 25 0 26 -1 8 -20z m-155 -24 c-8 -7
-44 -17 -79 -21 -57 -6 -63 -5 -52 9 12 14 41 20 116 24 25 2 27 0 15 -12z
m-307 -21 c39 0 52 -4 55 -16 2 -13 -11 -18 -60 -27 -35 -5 -67 -6 -72 -2 -5
5 -2 22 5 40 8 17 15 25 17 18 2 -10 19 -14 55 -13z m-313 -5 c0 -11 -4 -20
-10 -20 -5 0 -10 9 -10 20 0 11 5 20 10 20 6 0 10 -9 10 -20z m114 -36 c11
-27 7 -31 -47 -44 -41 -9 -59 -10 -75 -1 -43 23 -25 40 52 51 28 4 54 8 57 9
4 0 10 -6 13 -15z m-166 -96 c17 -17 15 -55 -2 -61 -15 -6 -29 6 -39 36 -12
34 16 50 41 25z m437 -18 c-3 -5 -10 -10 -16 -10 -5 0 -9 5 -9 10 0 6 7 10 16
10 8 0 12 -4 9 -10z m-315 -45 c0 -8 -4 -15 -10 -15 -5 0 -10 7 -10 15 0 8 5
15 10 15 6 0 10 -7 10 -15z m187 -17 c-3 -7 -5 -2 -5 12 0 14 2 19 5 13 2 -7
2 -19 0 -25z m-767 2 c0 -5 -10 -10 -22 -9 -22 0 -22 1 -3 9 11 5 21 9 23 9 1
1 2 -3 2 -9z m640 -75 c-7 -8 -16 -15 -21 -15 -14 0 -11 38 4 43 20 7 31 -11
17 -28z m557 3 c-3 -7 -5 -2 -5 12 0 14 2 19 5 13 2 -7 2 -19 0 -25z m-777
-87 c0 -11 -4 -23 -10 -26 -6 -4 -10 5 -10 19 0 14 5 26 10 26 6 0 10 -9 10
-19z m-339 -44 c-8 -8 -11 -4 -11 14 0 33 14 47 18 19 2 -12 -1 -27 -7 -33z
m-21 18 c0 -14 -4 -25 -10 -25 -11 0 -14 33 -3 43 11 11 13 8 13 -18z m679 8
c-1 -10 1 -26 6 -35 4 -10 5 -24 2 -32 -7 -18 -79 -41 -101 -33 -19 8 -21 43
-3 50 7 3 4 6 -7 6 -16 1 -16 3 -5 17 15 18 66 42 92 43 12 1 17 -5 16 -16z
m-389 -55 c0 -16 -3 -19 -11 -11 -6 6 -8 16 -5 22 11 17 16 13 16 -11z m182
-30 c-8 -10 -2 -13 26 -13 54 0 55 -28 2 -55 -59 -30 -85 -24 -85 20 -1 44 11
60 42 60 19 0 23 -3 15 -12z m-126 -67 c-3 -5 1 -14 9 -21 22 -18 3 -44 -41
-58 -27 -8 -41 -8 -51 0 -23 19 -14 38 30 58 l42 19 -35 -6 -35 -6 35 25 c28
19 37 22 43 11 4 -7 6 -17 3 -22z m-401 -1 c-3 -5 -11 -10 -16 -10 -6 0 -7 5
-4 10 3 6 11 10 16 10 6 0 7 -4 4 -10z m452 -47 c-3 -10 -5 -2 -5 17 0 19 2
27 5 18 2 -10 2 -26 0 -35z m-643 31 c23 -9 19 -31 -6 -38 -45 -12 -76 -7 -74
11 4 25 48 39 80 27z m153 -16 c-3 -8 -6 -5 -6 6 -1 11 2 17 5 13 3 -3 4 -12
1 -19z m319 -12 c-1 -8 -8 -21 -15 -30 -7 -8 -10 -19 -8 -24 16 -25 -43 -51
-63 -27 -13 16 -5 44 23 83 13 17 66 16 63 -2z m-579 -28 c-3 -8 -6 -5 -6 6
-1 11 2 17 5 13 3 -3 4 -12 1 -19z m-153 -51 c7 -11 7 -20 0 -27 -16 -16 -47
11 -38 33 7 21 23 18 38 -6z m555 3 c40 -21 26 -70 -20 -70 -25 0 -32 20 -20
53 12 30 14 31 40 17z m789 -2 c17 -17 16 -88 -2 -88 -7 0 -19 7 -26 15 -7 8
-19 15 -26 15 -21 0 -17 27 8 50 25 23 30 24 46 8z m-1208 -39 c0 -6 9 -8 20
-4 11 4 20 2 20 -4 0 -16 -32 -13 -58 5 -28 19 -30 39 -2 24 11 -6 20 -15 20
-21z m357 6 c11 -53 9 -60 -22 -60 -34 0 -41 17 -25 59 12 32 41 32 47 1z
m-544 -36 c-3 -11 -9 -22 -14 -25 -10 -6 -12 49 -2 59 10 11 21 -13 16 -34z
m1587 26 c0 -8 -4 -15 -10 -15 -5 0 -10 7 -10 15 0 8 5 15 10 15 6 0 10 -7 10
-15z m-1224 -60 c20 -10 23 -15 12 -15 -12 0 -18 -8 -18 -25 0 -26 -25 -45
-59 -45 -56 0 -27 81 35 100 1 0 15 -7 30 -15z m82 -7 c-5 -34 -38 -37 -38 -4
0 20 5 26 21 26 15 0 20 -5 17 -22z m-488 -23 c0 -18 -15 -26 -34 -19 -25 9
-19 29 9 30 15 1 25 -4 25 -11z m60 -25 c0 -5 -4 -10 -9 -10 -6 0 -13 5 -16
10 -3 6 1 10 9 10 9 0 16 -4 16 -10z m-87 -7 c12 -11 -14 -33 -39 -33 -23 0
-32 19 -17 33 8 9 48 9 56 0z m257 -43 c0 -29 -41 -67 -60 -55 -6 4 -17 -1
-26 -9 -19 -20 -29 -20 -48 -1 -21 22 0 75 30 75 20 0 17 -18 -3 -23 -14 -4
-12 -5 5 -6 12 0 23 4 23 9 1 6 2 15 3 21 0 6 12 17 26 24 31 17 50 4 50 -35z
m63 28 c2 -7 -3 -23 -11 -36 -12 -18 -17 -20 -23 -10 -16 25 -10 58 10 58 11
0 21 -6 24 -12z m-449 -14 c10 -26 7 -32 -19 -38 -32 -8 -75 2 -75 18 0 35 82
52 94 20z m1032 -41 c-10 -10 -19 5 -10 18 6 11 8 11 12 0 2 -7 1 -15 -2 -18z
m-806 -33 c20 -12 1 -45 -26 -45 -10 0 -24 -6 -29 -13 -6 -7 -24 -14 -40 -15
-17 -1 -35 -8 -41 -16 -15 -20 -44 -6 -44 20 0 17 5 20 25 16 14 -2 23 -2 21
1 -9 8 27 31 50 32 12 0 27 7 34 15 14 17 29 19 50 5z m-349 -11 c20 -10 19
-11 -5 -30 -13 -10 -30 -19 -38 -19 -10 0 -9 3 2 10 10 6 11 10 3 10 -7 0 -13
9 -13 20 0 22 20 26 51 9z m67 -22 c2 -12 -3 -17 -17 -17 -15 0 -21 6 -21 21
0 25 33 22 38 -4z m929 -2 c7 -19 5 -20 -24 -29 -20 -6 -23 -4 -23 18 0 19 5
26 20 26 11 0 23 -7 27 -15z m-640 -152 c-3 -10 -5 -4 -5 12 0 17 2 24 5 18 2
-7 2 -21 0 -30z m60 -70 c-3 -10 -5 -2 -5 17 0 19 2 27 5 18 2 -10 2 -26 0
-35z m-200 -15 c-3 -8 -6 -5 -6 6 -1 11 2 17 5 13 3 -3 4 -12 1 -19z m-617
-174 c0 -26 -17 -33 -26 -9 -8 20 3 48 16 40 5 -3 10 -17 10 -31z"/>
<path d="M420 4740 c0 -5 5 -10 10 -10 6 0 10 5 10 10 0 6 -4 10 -10 10 -5 0
-10 -4 -10 -10z"/>
<path d="M331 4684 c0 -11 3 -14 6 -6 3 7 2 16 -1 19 -3 4 -6 -2 -5 -13z"/>
<path d="M21 4658 c1 -7 5 -24 9 -38 7 -22 8 -21 9 13 1 20 -3 37 -9 37 -5 0
-10 -6 -9 -12z"/>
<path d="M321 4594 c0 -11 3 -14 6 -6 3 7 2 16 -1 19 -3 4 -6 -2 -5 -13z"/>
<path d="M20 4575 c0 -8 5 -15 10 -15 6 0 10 7 10 15 0 8 -4 15 -10 15 -5 0
-10 -7 -10 -15z"/>
<path d="M3328 4553 c7 -3 16 -2 19 1 4 3 -2 6 -13 5 -11 0 -14 -3 -6 -6z"/>
<path d="M3368 4525 c2 -14 11 -25 18 -25 17 0 18 22 2 38 -19 19 -26 14 -20
-13z"/>
<path d="M3307 4510 c4 -14 -1 -22 -18 -29 -13 -5 -17 -10 -9 -10 22 -1 50 24
50 43 0 9 -6 16 -14 16 -9 0 -12 -7 -9 -20z"/>
<path d="M5690 4516 c0 -8 5 -18 10 -21 6 -3 10 3 10 14 0 12 -4 21 -10 21 -5
0 -10 -6 -10 -14z"/>
<path d="M3237 4508 c-3 -7 -12 -30 -21 -50 -14 -34 -14 -38 -1 -38 8 0 15 9
15 19 0 11 5 23 10 26 6 3 10 15 10 25 0 10 6 21 13 23 7 4 6 6 -4 6 -9 1 -19
-5 -22 -11z"/>
<path d="M3177 4480 c-3 -11 -1 -20 4 -20 5 0 9 2 9 4 0 2 3 11 6 20 3 9 2 16
-4 16 -5 0 -12 -9 -15 -20z"/>
<path d="M3122 4477 c-17 -20 -53 -109 -41 -102 6 4 14 18 19 31 5 13 17 24
27 24 14 0 15 2 4 9 -10 7 -11 13 -2 30 13 23 9 28 -7 8z"/>
<path d="M3333 4444 c-17 -19 -26 -34 -19 -34 7 0 27 16 46 35 19 20 28 34 19
34 -7 -1 -28 -17 -46 -35z"/>
<path d="M5717 4453 c5 -16 7 -55 7 -87 -1 -37 1 -54 7 -45 5 8 9 22 9 32 0 9
7 17 16 17 21 0 13 49 -13 85 -24 32 -35 31 -26 -2z"/>
<path d="M72 4418 c-5 -8 -7 -33 -3 -58 8 -55 18 -42 19 23 0 51 -1 53 -16 35z"/>
<path d="M1141 4373 c-1 -29 3 -53 9 -53 12 0 12 44 0 80 -6 20 -8 14 -9 -27z"/>
<path d="M3222 4373 c-29 -14 -51 -27 -48 -30 3 -3 33 8 68 25 35 17 56 30 48
30 -8 0 -39 -11 -68 -25z"/>
<path d="M3015 4381 c-10 -18 5 -53 21 -47 8 3 14 1 14 -4 0 -11 43 -13 78 -4
38 11 24 19 -30 19 -45 0 -54 3 -64 23 -7 15 -14 20 -19 13z"/>
<path d="M4214 4259 c-3 -6 -1 -16 5 -22 18 -18 13 -31 -6 -16 -17 13 -17 13
-3 -5 14 -18 13 -19 -2 -13 -24 9 -23 -4 3 -37 11 -14 17 -26 14 -26 -4 0 -3
-6 2 -12 6 -7 13 -25 16 -39 4 -14 20 -43 37 -64 25 -31 30 -34 30 -17 0 31
-15 64 -43 94 -17 18 -21 30 -14 37 7 7 6 16 -6 29 -9 10 -17 25 -17 33 1 10
5 9 15 -5 13 -18 14 -18 12 3 -1 11 -5 21 -10 21 -5 0 -7 11 -5 25 5 26 -14
36 -28 14z"/>
<path d="M3810 4210 c0 -17 6 -32 13 -35 6 -2 41 -12 77 -24 36 -11 73 -23 83
-26 12 -5 17 -2 17 10 0 9 -4 14 -8 11 -5 -3 -28 1 -53 8 -32 10 -45 19 -47
35 -4 28 28 29 35 1 3 -11 9 -17 14 -15 18 12 -5 34 -49 49 -69 24 -82 21 -82
-14z m40 10 c0 -5 7 -7 15 -4 11 5 15 -1 15 -20 0 -30 -3 -32 -24 -10 -9 9
-16 11 -16 4 0 -6 -4 -8 -10 -5 -16 10 -12 45 5 45 8 0 15 -4 15 -10z"/>
<path d="M4286 4173 c15 -33 24 -41 24 -24 0 5 -9 19 -20 32 l-20 24 16 -32z"/>
<path d="M3295 4164 c-188 -14 -420 -62 -545 -113 -160 -65 -260 -149 -260
-216 0 -30 99 -244 147 -317 l18 -28 -61 -58 c-43 -41 -71 -79 -94 -128 -18
-38 -40 -77 -48 -87 -15 -16 -14 -17 1 -11 15 6 16 3 2 -29 -8 -19 -11 -38 -7
-42 4 -5 2 -5 -5 -1 -19 11 -27 -37 -13 -79 6 -19 15 -33 19 -31 4 3 5 -8 3
-25 -2 -16 -8 -29 -12 -29 -4 0 -15 -30 -25 -67 -10 -38 -25 -74 -33 -80 -9
-7 -11 -13 -5 -13 14 0 -1 -62 -25 -102 -18 -30 -42 -37 -42 -13 0 8 -4 15
-10 15 -12 0 -13 -17 -1 -24 10 -7 9 -61 -2 -73 -5 -4 -5 0 -2 9 4 9 2 19 -4
23 -6 3 -11 -1 -11 -11 0 -13 -3 -14 -14 -5 -21 17 -50 -123 -41 -195 4 -34 2
-61 -6 -75 -6 -13 -17 -73 -24 -135 -13 -121 -6 -267 20 -404 7 -42 13 -84 11
-93 -5 -35 -14 -26 -19 20 -3 26 -15 93 -27 148 -34 157 -41 251 -25 347 7 46
19 97 25 113 9 23 8 27 0 18 -22 -21 -50 -146 -50 -223 0 -45 12 -132 31 -220
38 -181 49 -262 38 -274 -5 -6 -9 6 -9 30 0 21 -7 71 -16 109 -67 303 -76 405
-44 507 25 79 25 79 -2 75 -25 -4 -36 -27 -37 -79 -1 -43 -21 -53 -21 -10 -1
25 -1 26 -12 7 -15 -25 -18 -145 -7 -255 5 -47 13 -137 19 -200 13 -136 30
-250 37 -250 3 0 12 8 19 18 12 15 13 15 14 1 0 -19 -59 -84 -68 -75 -3 4 -5
23 -4 44 2 21 -7 136 -18 256 -11 121 -20 251 -21 290 -1 39 -4 82 -9 96 -16
55 -23 -54 -12 -185 7 -71 14 -166 18 -210 3 -44 8 -91 11 -105 3 -14 7 -70
10 -124 5 -84 3 -101 -11 -111 -8 -7 -20 -23 -25 -36 -9 -22 -9 -22 -9 9 1 22
6 32 17 33 10 0 12 2 3 6 -6 2 -9 10 -5 16 9 15 6 163 -7 287 -5 52 -14 163
-20 246 -11 140 -10 155 8 206 l20 56 -27 -14 c-14 -8 -32 -14 -40 -14 -20 0
-54 -49 -72 -104 -17 -53 -33 -69 -37 -36 -1 11 -3 29 -4 40 -3 28 -23 25 -46
-7 -23 -32 -150 -106 -135 -79 5 10 23 26 39 37 l29 19 -27 0 c-17 0 -28 -5
-28 -14 0 -7 -7 -19 -15 -26 -12 -10 -15 -10 -15 1 0 8 -4 7 -13 -5 -7 -9 -22
-18 -34 -19 -12 0 -20 -3 -18 -5 2 -2 -9 -21 -24 -43 -16 -21 -34 -52 -41 -69
-7 -16 -20 -30 -29 -30 -12 0 -13 2 -3 8 7 5 10 17 6 28 -4 14 -4 16 4 5 8
-11 16 -3 36 37 14 28 26 54 26 57 0 3 -23 -17 -50 -44 -28 -28 -50 -58 -50
-68 0 -11 -9 -36 -20 -58 -15 -29 -20 -59 -20 -112 0 -114 27 -214 92 -343 37
-73 49 -104 33 -85 -36 44 -123 242 -136 310 -6 32 -9 91 -7 131 3 77 -11 87
-19 12 -8 -70 13 -183 46 -254 46 -98 37 -92 -15 9 -39 77 -45 97 -51 176 -5
82 -4 92 21 144 28 61 31 71 16 62 -5 -3 -10 -4 -10 -2 0 3 15 14 33 26 43 27
23 26 -33 -2 -45 -23 -60 -44 -106 -151 -15 -37 -15 -80 0 -131 4 -11 -3 -2
-14 20 -13 25 -19 54 -17 78 3 43 2 44 -13 17 -8 -14 -8 -32 -1 -58 9 -33 9
-35 -4 -18 -17 23 -20 92 -5 101 6 4 19 24 30 46 l20 39 -25 -12 c-14 -6 -25
-15 -25 -20 0 -6 -17 -7 -38 -3 -28 4 -42 2 -51 -9 -16 -19 -17 -66 -3 -103 6
-15 13 -52 16 -82 3 -29 10 -59 16 -66 5 -7 14 -34 19 -61 8 -44 8 -47 -5 -29
-8 11 -17 37 -21 57 -7 46 -23 61 -23 22 0 -34 -15 -22 -26 20 -6 25 -4 28 9
23 14 -5 16 0 11 41 -2 26 -10 70 -16 98 -8 39 -7 56 2 75 12 22 12 23 -3 10
-15 -11 -16 -28 -11 -115 4 -72 2 -96 -5 -85 -6 9 -11 58 -12 108 -1 71 -4 91
-15 91 -10 0 -14 -15 -14 -57 0 -68 -15 -102 -25 -60 -5 17 -11 24 -19 20 -14
-9 -39 -10 -46 -2 -3 4 -16 2 -29 -2 -23 -9 -23 -12 -17 -72 4 -34 11 -109 17
-166 6 -57 17 -124 25 -149 16 -54 12 -66 -9 -25 -18 34 -45 195 -53 316 -4
54 -10 85 -16 81 -6 -4 -7 -29 -3 -63 3 -31 8 -87 10 -126 3 -66 23 -176 40
-220 7 -18 6 -19 -9 -4 -23 21 -44 104 -51 203 -15 214 -13 206 -45 206 -16 0
-39 -5 -52 -10 -22 -10 -23 -17 -25 -126 -3 -104 0 -122 23 -180 14 -35 23
-70 21 -77 -3 -7 -6 -4 -6 6 -1 10 -15 46 -32 80 -31 61 -32 64 -25 164 3 57
2 104 -3 108 -5 3 -12 -38 -16 -91 -6 -82 -5 -103 13 -152 58 -161 99 -280
105 -302 l6 -25 -19 25 c-11 14 -25 43 -30 65 -13 48 -28 92 -70 205 -29 80
-31 91 -25 179 l6 93 -28 -7 c-60 -15 -64 -26 -57 -159 3 -67 15 -159 25 -205
21 -92 19 -114 -5 -56 -24 56 -43 199 -45 328 -1 23 -5 36 -11 32 -16 -10 -11
-173 9 -270 10 -49 17 -92 15 -94 -7 -7 -34 69 -44 121 -6 28 -10 79 -10 114
0 35 -5 66 -11 70 -16 9 -48 -26 -59 -66 l-9 -35 25 29 c14 15 27 26 29 24 5
-5 -18 -84 -28 -94 -4 -4 -7 -17 -7 -28 1 -21 1 -21 15 -2 16 22 17 20 19 -41
1 -29 -2 -39 -10 -32 -6 5 -13 7 -15 4 -3 -2 -19 8 -37 23 l-33 28 16 37 c18
43 12 61 -16 54 -15 -4 -23 3 -34 30 -20 47 -9 59 60 68 89 11 54 23 -71 24
-64 1 -120 2 -123 3 -3 0 -61 0 -128 -1 -98 -1 -123 -4 -123 -15 0 -18 25 -27
53 -21 43 10 332 14 317 5 -8 -6 -24 -10 -34 -10 -18 0 -133 -49 -166 -70 -8
-6 -24 -14 -36 -19 -11 -5 -35 -25 -52 -46 -21 -23 -37 -33 -45 -28 -34 21
-37 13 -37 -102 0 -81 4 -121 15 -141 8 -16 15 -37 15 -46 0 -10 14 -33 31
-52 19 -22 29 -44 27 -57 -2 -12 3 -24 11 -27 10 -3 11 2 6 19 -5 19 -4 21 5
9 27 -37 30 -48 14 -54 -10 -4 -13 -2 -8 6 4 7 3 8 -5 4 -6 -4 -9 -12 -6 -17
4 -5 -1 -9 -9 -9 -9 0 -16 4 -16 9 0 5 -12 12 -26 15 -19 5 -24 10 -16 18 13
13 -12 43 -28 33 -6 -4 -10 -82 -10 -204 l0 -199 55 -7 c84 -10 310 42 427 98
37 18 61 26 53 17 -15 -16 -5 -47 12 -37 5 3 10 -1 10 -9 0 -8 -6 -13 -14 -9
-50 20 -49 20 -31 -2 24 -27 23 -46 -2 -38 -23 7 -25 2 -9 -26 6 -12 17 -18
24 -15 8 3 17 1 20 -3 6 -11 -14 -71 -31 -91 -11 -13 -9 -19 12 -37 13 -12 26
-17 30 -12 3 5 23 9 45 9 24 0 38 -4 34 -10 -3 -6 -19 -10 -35 -10 -16 0 -31
-4 -35 -10 -3 -5 -11 -7 -18 -5 -7 3 -19 1 -27 -4 -24 -16 6 -61 42 -61 32 0
32 0 15 -34 -8 -14 -17 -22 -21 -18 -13 12 17 -52 32 -70 8 -10 12 -27 9 -39
-5 -20 25 -78 45 -87 5 -2 3 -12 -2 -22 -7 -14 -5 -28 7 -54 l18 -36 70 4 c85
5 80 3 67 19 -15 18 -3 57 17 57 13 1 13 3 -4 16 -20 15 -20 16 8 38 31 25 34
38 12 56 -19 16 -19 47 0 57 8 5 17 28 19 51 2 24 8 48 14 55 5 7 9 26 9 43 0
25 -7 35 -33 49 -18 9 -37 14 -43 11 -6 -4 -11 -3 -11 2 0 5 21 13 48 18 39 7
48 13 50 33 3 17 -4 30 -20 43 l-23 18 25 19 c20 16 22 21 11 35 -7 9 -22 16
-32 16 -27 0 -24 32 5 59 26 24 40 71 22 71 -6 0 -4 5 4 10 13 8 12 10 -3 10
-10 0 18 24 62 54 57 39 86 53 101 49 28 -7 162 24 225 54 28 12 65 23 83 23
18 0 49 7 70 16 20 8 62 17 93 19 37 2 77 14 115 33 33 16 72 32 87 36 15 4
60 22 100 40 40 19 105 44 145 56 90 28 95 26 195 -80 l73 -75 11 -90 c20
-166 0 -701 -33 -892 l-6 -33 1306 0 1307 0 -11 21 c-6 11 -10 25 -8 31 2 6
10 -3 17 -20 l13 -32 1339 0 1339 0 0 388 0 388 -112 49 c-62 27 -153 66 -203
88 -49 22 -103 43 -118 48 -30 8 -29 11 -13 -47 4 -12 0 -34 -9 -50 -11 -21
-15 -24 -15 -10 0 14 -6 17 -25 14 -14 -3 -25 -1 -25 3 0 5 5 9 11 9 8 0 10
15 7 45 -3 25 -2 45 3 45 5 0 9 4 9 10 0 9 -225 121 -271 135 -13 4 -57 22
-96 41 -40 19 -103 46 -140 60 -38 15 -81 37 -98 49 -16 12 -73 37 -125 55
-52 18 -101 38 -107 43 -9 6 -13 6 -13 -2 0 -6 5 -11 10 -11 6 0 10 -6 10 -14
0 -8 6 -17 13 -19 6 -3 -4 -6 -23 -6 -19 0 -42 4 -50 10 -12 8 -11 9 5 7 14
-2 21 3 23 18 2 17 -8 27 -49 48 -53 26 -95 34 -84 17 3 -5 1 -13 -5 -16 -8
-5 -7 -11 1 -22 10 -12 8 -18 -12 -36 -14 -12 -28 -30 -32 -39 -9 -24 -56 -21
-50 3 6 21 -33 49 -68 49 -14 0 -34 -9 -43 -19 -10 -11 -26 -19 -35 -18 -10 0
-32 -5 -49 -12 -24 -10 -32 -20 -32 -38 0 -15 5 -23 13 -20 6 2 11 14 10 26
-2 17 3 21 27 21 20 0 30 -5 30 -15 0 -8 9 -15 20 -15 13 0 18 5 14 15 -6 15
31 30 61 23 27 -5 18 -23 -17 -29 -41 -8 -38 -9 39 -14 46 -4 65 -1 76 10 22
21 40 19 56 -7 12 -19 11 -23 -4 -34 -15 -12 -16 -17 -5 -44 10 -24 10 -33 -1
-46 -10 -13 -10 -20 5 -45 10 -17 16 -32 14 -34 -2 -2 -27 -5 -55 -6 -29 -1
-50 -5 -48 -9 2 -3 -9 -14 -26 -24 -40 -24 -36 -36 11 -36 22 0 40 -4 40 -9 0
-14 -27 -39 -49 -46 -11 -3 -26 -16 -34 -28 -14 -21 -13 -22 27 -22 35 0 41
-3 44 -22 3 -18 -2 -22 -30 -25 -39 -4 -40 -21 -1 -28 15 -3 45 -14 66 -23 21
-10 47 -15 57 -12 17 5 38 -11 27 -21 -9 -9 -107 -12 -113 -3 -3 5 -10 9 -16
9 -20 0 36 -41 64 -47 32 -6 32 -7 16 -68 -9 -32 -17 -45 -30 -45 -10 0 -18 5
-18 10 0 6 -7 10 -15 10 -8 0 -15 6 -16 13 0 6 -5 3 -10 -8 l-9 -20 1 20 c2
42 0 46 -19 36 -10 -6 -28 -8 -39 -5 -13 4 -22 0 -26 -9 -7 -19 18 -41 35 -31
7 4 10 4 6 -1 -17 -19 25 -39 77 -36 32 1 56 -2 60 -9 5 -8 20 -9 42 -5 24 4
33 3 28 -4 -3 -6 -18 -11 -33 -11 -30 -1 -154 -27 -135 -29 7 -1 59 6 115 13
161 23 355 46 385 46 18 0 33 -8 41 -21 18 -29 10 -33 -16 -8 -16 14 -29 18
-44 13 -19 -6 -19 -7 -5 -16 22 -12 22 -32 1 -24 -14 5 -15 4 -5 -8 7 -8 20
-12 29 -10 15 5 15 4 2 -5 -9 -5 -87 -20 -173 -32 -86 -12 -155 -24 -153 -26
2 -3 77 5 166 16 178 23 230 25 130 6 -57 -11 -60 -13 -26 -14 22 0 37 -3 35
-5 -2 -3 -63 -13 -134 -22 -72 -10 -123 -20 -114 -22 10 -1 67 4 128 12 145
21 171 20 171 0 0 -13 -3 -14 -14 -5 -13 11 -66 0 -66 -14 0 -4 5 -3 10 0 9 5
14 -6 12 -26 -1 -3 5 -6 13 -6 10 0 11 5 4 19 -12 23 2 24 21 1 16 -19 26 -63
15 -63 -4 0 -13 7 -21 15 -17 17 -44 20 -44 5 0 -5 7 -10 15 -10 8 0 15 -4 15
-9 0 -15 -18 -23 -25 -12 -5 9 -14 6 -95 -35 -14 -7 -29 -21 -35 -31 -5 -10
-11 -20 -12 -22 -2 -2 -9 2 -18 9 -20 16 -43 6 -47 -21 -2 -12 -8 -24 -14 -26
-7 -2 -10 6 -7 22 4 19 1 25 -13 25 -27 0 -41 -12 -53 -43 -8 -20 -18 -27 -38
-28 -66 -3 -96 -7 -102 -16 -9 -14 -72 -8 -83 8 -6 10 -7 7 -3 -11 4 -15 3
-20 -2 -13 -7 10 -20 9 -61 -1 -51 -14 -52 -14 -52 7 0 21 -1 20 -25 -6 -15
-15 -36 -27 -50 -27 -27 0 -32 9 -14 27 6 6 8 16 5 22 -12 19 -26 12 -23 -11
1 -14 -3 -22 -10 -21 -7 2 -13 -1 -13 -6 0 -5 6 -12 13 -14 7 -3 5 -6 -5 -6
-10 -1 -18 5 -18 13 0 8 -4 18 -10 21 -6 3 -7 -1 -4 -9 4 -10 1 -16 -9 -16 -8
0 -18 11 -21 25 -6 25 -29 34 -41 15 -3 -5 -12 -7 -20 -4 -9 4 -18 -2 -23 -17
-7 -19 -10 -20 -15 -6 -8 22 -33 22 -42 -1 -7 -16 -8 -16 -14 0 -5 16 -9 16
-34 3 -24 -12 -27 -12 -27 1 0 11 -6 13 -20 9 -12 -4 -27 -2 -34 5 -11 8 -18
7 -29 -5 -22 -21 -27 -19 -27 13 0 32 16 52 42 52 15 0 17 3 8 19 -7 14 -7 22
0 26 6 4 8 11 5 16 -8 13 6 17 126 39 85 16 92 18 39 14 -36 -3 -78 -7 -95
-10 -54 -8 -9 7 66 21 76 15 67 15 -76 0 -54 -6 -20 4 95 26 52 10 73 16 45
14 -85 -9 -181 -14 -158 -9 12 3 24 12 27 20 7 17 -6 18 -22 2 -9 -9 -12 -7
-12 10 0 16 -6 22 -22 22 -12 0 -18 3 -15 6 8 8 174 44 204 44 28 0 38 17 23
35 -15 18 -29 15 -52 -10 -13 -14 -11 -5 7 29 24 46 34 107 18 105 -20 -3 -27
2 -13 11 12 7 12 12 -4 29 -10 11 -22 18 -26 16 -4 -3 -1 18 7 47 13 43 13 59
3 105 -15 60 -25 68 -28 22 -1 -18 -7 -50 -13 -73 -6 -23 -13 -52 -16 -65 -7
-28 -56 -78 -118 -121 -71 -49 -64 -29 7 23 67 48 105 84 96 92 -3 3 -27 -12
-54 -33 -27 -21 -56 -42 -64 -47 -32 -19 12 25 62 61 62 46 74 70 83 173 6 73
5 83 -8 78 -12 -4 -16 6 -22 49 -8 63 -19 75 -33 37 -8 -21 -11 -23 -11 -9 -1
11 6 27 14 36 12 13 12 22 1 60 -10 33 -14 39 -18 23 -3 -11 -1 -28 4 -37 5
-9 7 -22 4 -29 -2 -7 -5 -4 -5 6 -1 9 -6 17 -12 17 -6 0 -9 10 -8 23 2 12 0
28 -4 34 -4 7 -3 21 2 31 13 24 3 70 -11 50 -6 -9 -7 -6 -3 9 8 30 -5 99 -16
82 -5 -9 -8 -3 -7 16 0 17 -5 43 -11 59 -7 16 -9 48 -5 76 6 47 -10 102 -25
84 -4 -5 -18 -54 -30 -109 -32 -138 -42 -165 -69 -183 l-24 -16 15 35 c8 19
24 55 36 80 11 25 25 75 30 110 6 35 13 81 17 102 4 25 3 37 -5 37 -6 0 -11
-15 -12 -32 0 -18 -3 -27 -6 -20 -3 7 0 42 7 78 9 49 10 68 1 77 -8 8 -11 6
-11 -10 0 -29 -89 -243 -90 -215 0 6 18 56 40 109 23 54 39 106 38 118 -3 14
-9 4 -21 -30 -19 -54 -61 -133 -53 -100 2 11 16 47 30 80 28 66 32 105 14 156
-13 39 -46 90 -56 86 -10 -3 -101 56 -102 66 0 4 11 0 25 -9 27 -18 32 -9 11
18 -16 22 -103 61 -116 53 -5 -3 -27 4 -50 15 -33 17 -40 18 -40 5 0 -8 7 -15
15 -15 8 0 15 -9 15 -20 0 -11 -4 -20 -10 -20 -5 0 -10 5 -10 10 0 6 -5 10
-11 10 -5 0 -7 -4 -4 -10 12 -20 -7 -32 -21 -13 -18 24 -17 33 1 33 24 0 17
26 -14 52 -16 14 -34 35 -41 47 -8 16 -18 21 -33 17 -17 -4 -25 1 -34 21 -7
15 -13 32 -13 39 0 6 -13 25 -30 42 -16 18 -30 37 -30 43 0 7 -11 27 -26 46
-18 23 -33 33 -53 33 -24 0 -28 5 -37 42 -8 38 -12 42 -60 57 -28 9 -65 28
-83 44 -35 29 -46 33 -56 17 -4 -7 -11 -8 -18 -2 -7 6 -32 13 -57 17 -65 9
-81 15 -74 26 3 5 10 6 16 3 6 -4 8 -2 5 3 -4 6 9 27 29 48 27 29 32 40 23 49
-9 8 -10 8 -4 -3 5 -9 3 -12 -5 -9 -16 5 -20 42 -7 60 6 9 7 8 3 -4 -3 -10 -1
-18 4 -18 6 0 10 7 10 16 0 9 8 23 18 30 16 13 16 14 -3 7 -19 -6 -19 -5 3 19
12 13 19 28 15 31 -3 4 -1 7 5 7 7 0 12 10 12 23 0 20 2 19 26 -10 24 -31 74
-47 74 -24 0 5 -8 7 -19 4 -20 -5 -65 42 -55 58 3 5 0 9 -5 9 -6 0 -11 7 -11
15 0 8 9 15 19 15 11 0 23 5 26 10 8 14 25 3 25 -16 0 -9 -5 -12 -12 -8 -7 4
-8 3 -4 -4 7 -11 36 -6 36 7 0 4 -16 26 -36 49 -42 49 -44 42 52 138 60 60 94
112 94 144 0 9 9 35 20 58 28 58 43 145 35 203 -31 226 -376 539 -722 655
-138 46 -303 62 -498 48z m-68 -20 c-3 -3 -12 -4 -19 -1 -8 3 -5 6 6 6 11 1
17 -2 13 -5z m230 0 c-3 -3 -12 -4 -19 -1 -8 3 -5 6 6 6 11 1 17 -2 13 -5z
m61 -20 c62 -26 176 -64 195 -64 9 0 17 -7 17 -15 0 -8 -2 -15 -4 -15 -22 0
-272 108 -253 109 4 1 24 -6 45 -15z m166 -3 c4 -5 -3 -7 -14 -4 -23 6 -26 13
-6 13 8 0 17 -4 20 -9z m-838 -111 c-19 -17 -34 -37 -33 -43 1 -7 -4 -11 -10
-9 -7 1 -13 -7 -13 -18 0 -11 -4 -28 -10 -38 -5 -9 -19 -43 -31 -74 -18 -51
-23 -57 -39 -48 -21 11 -53 3 -44 -11 3 -5 1 -9 -4 -9 -6 0 -10 -32 -10 -70 0
-39 -3 -74 -7 -78 -5 -4 -5 -2 -1 5 3 6 2 14 -3 17 -5 3 -12 30 -16 59 -3 28
-8 66 -11 82 -3 24 -2 26 5 10 7 -17 10 -15 16 18 8 39 39 68 48 44 2 -6 8 -8
13 -4 5 5 1 13 -9 19 -16 9 -15 13 17 43 20 19 36 39 36 46 0 7 2 10 5 7 3 -3
20 8 38 25 36 34 89 68 95 62 2 -2 -12 -18 -32 -35z m994 30 c0 -5 -2 -10 -4
-10 -3 0 -8 5 -11 10 -3 6 -1 10 4 10 6 0 11 -4 11 -10z m95 -14 c33 -3 63
-16 69 -31 10 -26 -13 -26 -61 0 -26 14 -53 25 -60 25 -6 0 -15 5 -19 11 -5 9
1 10 22 4 16 -4 38 -9 49 -9z m101 -92 c27 -5 66 -27 98 -56 10 -9 34 -24 54
-34 19 -9 37 -25 39 -35 5 -18 16 -24 38 -19 6 1 4 -4 -2 -11 -11 -10 -19 -7
-45 17 -42 39 -95 73 -183 118 -38 20 -60 34 -48 31 13 -4 35 -8 49 -11z
m-770 -33 c-6 -9 -46 -22 -46 -15 0 3 10 9 23 14 29 11 29 11 23 1z m47 2 c-7
-2 -19 -2 -25 0 -7 3 -2 5 12 5 14 0 19 -2 13 -5z m318 -146 c-6 -6 -12 -20
-12 -31 -1 -17 -2 -17 -6 -4 -4 14 -8 15 -29 6 -20 -10 -27 -8 -39 8 -12 16
-14 17 -15 2 0 -9 5 -18 12 -20 8 -3 5 -15 -10 -40 -19 -30 -20 -37 -7 -42 27
-10 16 -26 -19 -26 -34 0 -46 13 -46 50 0 10 -6 21 -12 23 -10 4 -9 8 2 16 8
5 12 13 8 16 -3 3 -13 -1 -22 -10 -11 -11 -16 -13 -16 -4 0 8 -7 5 -16 -7 -13
-16 -15 -16 -10 -1 6 19 -10 24 -17 5 -4 -10 -8 -9 -16 2 -9 12 -11 11 -11 -8
0 -24 -31 -44 -38 -24 -2 6 -11 8 -20 5 -14 -4 -14 -3 -3 5 8 6 11 17 8 25 -4
11 -1 15 13 12 10 -2 21 3 24 12 4 9 13 13 22 9 9 -4 29 1 43 11 33 22 63 27
72 11 6 -9 22 -8 71 4 67 16 107 13 89 -5z m688 -6 c66 -68 102 -131 67 -118
-8 3 -17 3 -19 -1 -2 -4 -2 -1 0 7 4 17 -65 103 -78 95 -5 -3 -8 0 -7 8 2 7
-3 12 -11 10 -12 -3 -12 0 -1 12 16 21 16 21 49 -13z m-549 -1 c0 -5 -2 -10
-4 -10 -3 0 -8 5 -11 10 -3 6 -1 10 4 10 6 0 11 -4 11 -10z m-32 -21 c14 0 13
-2 -3 -9 -30 -13 -45 -12 -45 4 0 16 23 28 28 15 2 -5 11 -9 20 -10z m122 11
c0 -5 -4 -10 -10 -10 -5 0 -10 5 -10 10 0 6 5 10 10 10 6 0 10 -4 10 -10z m30
-10 c0 -5 -4 -10 -10 -10 -5 0 -10 5 -10 10 0 6 5 10 10 10 6 0 10 -4 10 -10z
m-1123 -47 c-3 -10 -5 -4 -5 12 0 17 2 24 5 18 2 -7 2 -21 0 -30z m428 7 c3
-5 1 -10 -4 -10 -6 0 -11 5 -11 10 0 6 2 10 4 10 3 0 8 -4 11 -10z m679 -66
c21 -27 25 -39 17 -47 -9 -9 -17 -6 -31 13 -11 14 -20 20 -20 13 0 -8 -9 -9
-32 -3 -17 5 -36 6 -42 1 -6 -4 -26 -11 -44 -15 -41 -7 -39 9 3 31 65 35 69
36 73 25 2 -6 10 -8 18 -5 7 3 11 9 8 14 -3 5 1 9 8 9 7 0 26 -16 42 -36z m26
26 c12 -7 12 -12 2 -22 -11 -11 -13 -9 -11 8 0 4 -5 11 -13 15 -7 5 -8 9 -3 9
6 0 17 -5 25 -10z m-1182 -49 c-1 -22 -5 -38 -9 -35 -4 2 -17 -8 -28 -23 -15
-20 -20 -23 -21 -12 0 9 7 19 15 23 8 3 12 12 9 21 -4 8 1 17 10 21 9 3 16 15
16 25 0 10 2 19 5 19 3 0 5 -18 3 -39z m407 19 c-3 -5 -11 -10 -16 -10 -6 0
-7 5 -4 10 3 6 11 10 16 10 6 0 7 -4 4 -10z m-35 -39 c-14 -27 -32 -37 -23
-14 6 15 22 32 31 33 1 0 -2 -9 -8 -19z m95 10 c-3 -6 8 -8 27 -5 18 3 47 0
63 -5 28 -9 26 -10 -15 -7 -25 2 -37 1 -28 -1 9 -2 21 -10 27 -17 16 -19 -54
-42 -76 -24 -14 11 -15 10 -8 -11 6 -21 5 -22 -16 -16 -22 7 -23 6 -10 -9 10
-12 22 -15 39 -11 13 3 21 2 18 -3 -3 -6 -20 -12 -38 -15 -18 -3 -43 -8 -55
-12 -18 -6 -23 -3 -23 9 0 9 5 16 10 16 6 0 10 12 10 27 0 34 40 93 63 93 10
0 16 -4 12 -9z m772 -32 c11 -27 10 -29 -10 -27 -12 1 -61 -3 -109 -11 -47 -7
-94 -11 -105 -9 -10 2 16 10 57 17 98 16 130 29 130 52 0 27 24 13 37 -22z
m-419 20 c-25 -14 -23 -22 16 -43 l34 -18 -31 -29 c-16 -16 -27 -32 -23 -36 3
-4 12 1 19 10 8 11 20 15 35 11 25 -7 30 -24 7 -24 -8 0 -15 -4 -15 -9 0 -4
25 -8 56 -8 39 0 52 3 45 10 -19 19 -12 27 8 10 11 -9 17 -22 14 -29 -3 -8 0
-14 7 -14 6 0 8 5 5 10 -10 15 18 12 43 -6 21 -14 22 -14 22 6 0 14 -9 24 -30
31 -34 12 -38 24 -13 33 10 4 14 4 10 0 -4 -4 11 -15 32 -25 33 -14 46 -16 76
-6 26 8 38 8 43 0 4 -6 22 -14 41 -18 25 -5 32 -4 26 5 -6 10 1 11 26 7 39 -6
80 5 61 17 -7 4 -12 12 -12 17 0 6 5 7 10 4 6 -3 10 -2 10 3 0 6 10 5 25 -1
30 -14 33 -32 5 -24 -24 6 -26 -8 -3 -22 14 -8 15 -12 4 -25 -9 -11 -10 -16
-2 -16 6 0 11 -7 11 -16 0 -8 -4 -13 -9 -9 -5 3 -12 1 -16 -5 -4 -6 5 -10 22
-10 15 0 36 -7 46 -14 23 -18 22 -29 -3 -14 -15 10 -22 10 -32 0 -9 -9 -9 -12
0 -12 7 0 12 -4 12 -10 0 -5 -8 -6 -17 -3 -12 5 -15 2 -10 -10 3 -9 2 -19 -3
-22 -5 -3 -11 4 -15 15 -7 21 -35 28 -35 8 0 -6 -3 -9 -6 -6 -3 3 0 15 7 27 7
11 10 23 6 28 -9 8 -49 -33 -60 -60 -4 -10 -11 -15 -17 -12 -5 3 -10 -1 -10
-11 0 -13 -6 -15 -30 -10 -35 7 -40 -1 -7 -14 l22 -9 -22 0 c-25 -1 -31 -16
-10 -24 6 -2 9 -7 6 -10 -3 -4 -16 1 -30 10 -13 10 -35 16 -49 15 -17 -2 -21
0 -12 6 9 6 6 12 -13 22 -14 7 -25 17 -25 21 0 4 -16 16 -35 28 -20 11 -44 34
-53 51 -9 16 -25 30 -34 30 -26 0 -22 -13 17 -56 20 -21 31 -40 25 -42 -5 -2
-8 -8 -4 -13 11 -19 -75 -12 -97 8 -12 10 -18 11 -21 2 -2 -7 -30 -12 -76 -13
-40 0 -72 -4 -72 -7 0 -4 -8 -9 -17 -13 -10 -3 -24 -9 -30 -12 -21 -9 -15 20
14 75 25 49 26 71 4 57 -5 -4 -16 -19 -24 -34 -25 -51 -80 -147 -90 -161 -6
-7 -16 -22 -22 -34 -13 -27 -35 -33 -36 -10 -1 10 -4 5 -8 -12 -9 -37 -6 -42
14 -25 13 10 15 9 15 -9 0 -11 -4 -21 -10 -21 -5 0 -10 -7 -10 -16 0 -14 -3
-14 -15 -4 -8 7 -15 20 -16 29 0 12 -2 12 -6 2 -4 -11 -7 -11 -14 0 -4 7 -11
10 -15 6 -4 -3 -1 -13 5 -21 10 -11 8 -17 -10 -29 -11 -9 -18 -20 -15 -26 4
-5 2 -12 -4 -16 -7 -4 -7 -12 0 -26 7 -12 7 -19 1 -19 -5 0 -13 9 -16 20 -4
11 -10 18 -14 15 -17 -10 -101 138 -101 179 0 5 -6 17 -14 25 -10 11 -12 29
-7 61 4 29 2 54 -6 70 -11 21 -10 27 4 37 12 9 13 16 5 25 -17 21 -9 71 15 91
14 11 20 24 16 34 -4 9 1 21 12 29 29 21 35 17 35 -22 0 -28 -3 -35 -15 -30
-8 3 -15 1 -15 -3 0 -5 6 -11 13 -14 9 -3 9 -7 -2 -20 -9 -11 -10 -17 -2 -17
6 0 11 -8 11 -17 0 -10 4 -24 9 -32 11 -18 56 -7 65 15 5 14 4 15 -9 4 -9 -7
-16 -11 -18 -9 -29 52 -30 49 15 49 24 0 70 5 103 10 119 21 125 21 119 5 -4
-8 -24 -20 -45 -26 -42 -13 -48 -23 -23 -37 22 -12 52 -4 76 20 11 11 26 17
35 14 9 -4 17 1 20 14 6 24 11 25 35 3 16 -14 18 -14 18 0 0 8 -7 22 -15 31
-21 20 -19 26 10 26 29 0 32 8 9 25 -13 9 -14 16 -5 33 6 12 17 20 24 18 6 -1
9 -1 5 1 -19 11 -5 23 25 23 26 -1 29 -2 15 -11z m907 -39 c5 -23 4 -32 -3
-25 -5 6 -12 26 -16 45 -4 21 -3 31 3 25 5 -6 12 -26 16 -45z m-638 14 c-3 -3
-12 -4 -19 -1 -8 3 -5 6 6 6 11 1 17 -2 13 -5z m250 -16 c-3 -8 -6 -5 -6 6 -1
11 2 17 5 13 3 -3 4 -12 1 -19z m-700 -3 c0 -11 -11 -15 -39 -15 -21 0 -38 -4
-38 -10 0 -5 -5 -10 -11 -10 -16 0 10 30 36 40 32 13 52 11 52 -5z m598 -35
c3 -5 -1 -11 -9 -11 -17 -2 -34 -5 -38 -8 -2 -2 -30 -4 -63 -6 l-60 -5 54 16
c30 8 57 17 60 19 8 9 50 5 56 -5z m-945 -10 c0 -5 -5 -10 -11 -10 -5 0 -7 5
-4 10 3 6 8 10 11 10 2 0 4 -4 4 -10z m1468 -13 c8 -10 6 -13 -9 -13 -19 0
-24 7 -12 19 8 9 9 9 21 -6z m-1784 -45 c-3 -30 -4 -35 -11 -29 -3 4 -15 -1
-26 -10 -15 -14 -21 -15 -24 -5 -4 10 -8 8 -18 -5 -8 -11 -9 -20 -4 -24 5 -3
7 -13 3 -22 -3 -9 -10 -15 -14 -12 -4 2 -7 -12 -7 -33 0 -37 -19 -99 -28 -90
-3 2 -6 39 -8 80 -4 69 -2 76 14 73 10 -2 16 1 14 8 -7 18 7 33 39 44 17 5 32
16 34 24 4 11 2 12 -9 2 -7 -7 -18 -13 -23 -13 -6 0 -3 7 6 14 21 15 63 14 62
-2z m-14 -45 c0 -2 -11 -14 -25 -27 -14 -13 -25 -21 -25 -17 0 3 10 15 22 27
21 19 28 24 28 17z m100 -122 c-6 -19 -16 -33 -21 -29 -5 3 -7 10 -3 15 3 5 7
22 10 37 3 15 7 34 11 42 12 29 15 -29 3 -65z m-254 -10 c-16 -59 -44 -126
-45 -107 -1 7 8 41 19 75 30 91 30 90 35 85 2 -2 -2 -26 -9 -53z m98 40 c-4
-8 -8 -15 -10 -15 -2 0 -4 7 -4 15 0 8 4 15 10 15 5 0 7 -7 4 -15z m1446 -9
c0 -3 -4 -8 -10 -11 -5 -3 -10 -1 -10 4 0 6 5 11 10 11 6 0 10 -2 10 -4z m-45
-17 c11 -17 -1 -21 -15 -4 -8 9 -8 15 -2 15 6 0 14 -5 17 -11z m-1459 -83 c20
-29 17 -59 -8 -92 -13 -15 -17 -25 -10 -20 7 4 12 1 12 -8 0 -9 -2 -16 -4 -16
-2 0 -12 -3 -21 -6 -15 -6 -17 -2 -12 32 3 21 12 56 21 77 16 37 11 48 -13 25
-11 -11 -12 -9 -8 7 4 11 10 34 14 50 l8 30 3 -30 c2 -16 10 -38 18 -49z m24
7 c-11 -17 -11 -17 -6 0 3 10 6 24 7 30 0 9 2 9 5 0 3 -7 0 -20 -6 -30z m1534
-2 c-9 -10 -26 18 -18 30 5 9 9 8 14 -7 4 -10 6 -21 4 -23z m315 -24 c-7 -15
-17 -24 -22 -20 -6 4 -8 0 -5 -9 8 -19 -106 -135 -116 -119 -4 6 -2 11 4 11 7
0 9 7 6 16 -4 11 1 18 14 21 11 3 20 10 20 15 0 5 -6 6 -12 2 -7 -4 16 20 52
53 36 34 66 60 68 58 1 -1 -3 -14 -9 -28z m-1436 -12 c-7 -21 -13 -19 -13 6 0
11 4 18 10 14 5 -3 7 -12 3 -20z m-482 -18 c-10 -9 -11 -8 -5 6 3 10 9 15 12
12 3 -3 0 -11 -7 -18z m953 14 c8 -13 77 -23 124 -19 9 1 31 -1 47 -5 27 -7
28 -6 12 7 -16 12 -15 14 19 21 28 5 39 3 46 -9 5 -8 15 -22 23 -30 8 -8 15
-23 15 -34 0 -11 7 -22 15 -26 8 -3 15 -10 15 -16 0 -13 -37 -9 -67 8 -19 11
-23 10 -23 -2 0 -18 -13 -22 -72 -25 -30 -1 -48 2 -48 9 0 14 -87 5 -106 -11
-8 -6 -14 -8 -14 -3 0 5 -7 -2 -16 -14 -18 -26 -36 -29 -27 -4 6 15 3 15 -18
-3 -13 -11 -27 -24 -31 -30 -10 -13 -3 40 10 81 25 81 77 137 96 105z m-694
-21 c0 -5 -5 -10 -11 -10 -5 0 -7 5 -4 10 3 6 8 10 11 10 2 0 4 -4 4 -10z
m-336 -55 c5 -22 4 -26 -4 -15 -5 8 -10 24 -10 34 0 26 6 18 14 -19z m566 26
c0 -6 -4 -13 -10 -16 -5 -3 -10 1 -10 9 0 9 5 16 10 16 6 0 10 -4 10 -9z
m1217 -13 c-3 -8 -6 -5 -6 6 -1 11 2 17 5 13 3 -3 4 -12 1 -19z m-1388 -58 c0
-8 -6 -1 -13 15 -7 17 -11 34 -8 40 6 10 20 -27 21 -55z m-209 -6 c0 -19 -4
-33 -8 -30 -8 5 -4 66 4 66 2 0 4 -16 4 -36z m166 -52 c-14 -14 -15 -12 -10
24 9 61 18 73 22 30 2 -26 -2 -44 -12 -54z m1438 82 c8 -3 12 -12 9 -20 -4
-11 -9 -12 -19 -3 -8 6 -14 15 -14 20 0 11 3 11 24 3z m-1184 -40 c0 -8 -4
-12 -10 -9 -5 3 -10 10 -10 16 0 5 5 9 10 9 6 0 10 -7 10 -16z m-500 2 c0 -3
-4 -8 -10 -11 -5 -3 -10 -1 -10 4 0 6 5 11 10 11 6 0 10 -2 10 -4z m217 -26
c-1 -12 -5 -16 -10 -11 -5 5 -6 14 -3 20 11 16 15 13 13 -9z m430 14 c-3 -3
-12 -4 -19 -1 -8 3 -5 6 6 6 11 1 17 -2 13 -5z m27 -9 c-4 -8 -8 -15 -10 -15
-2 0 -4 7 -4 15 0 8 4 15 10 15 5 0 7 -7 4 -15z m469 -4 c4 -1 7 -12 7 -25 0
-22 -4 -24 -42 -25 -51 -1 -85 -5 -115 -15 -12 -4 -24 -3 -27 2 -3 5 -17 7
-32 4 -22 -4 -25 -2 -22 19 2 18 9 24 26 23 12 0 22 3 22 8 0 5 18 8 40 6 22
-1 42 1 45 3 4 5 54 4 98 0z m-508 -21 c3 -5 1 -10 -4 -10 -6 0 -11 5 -11 10
0 6 2 10 4 10 3 0 8 -4 11 -10z m1103 -47 c9 -7 13 -16 9 -20 -11 -11 -47 28
-47 51 1 21 1 21 12 1 6 -11 17 -26 26 -32z m-1823 20 c-4 -10 -8 -34 -9 -53
0 -20 -11 -48 -24 -65 -22 -29 -23 -29 -16 -5 4 14 9 27 13 30 3 3 8 21 9 40
4 35 18 70 28 70 4 0 3 -8 -1 -17z m195 -54 c0 -6 -4 -7 -10 -4 -5 3 -10 11
-10 16 0 6 5 7 10 4 6 -3 10 -11 10 -16z m557 -11 c-3 -8 -6 -5 -6 6 -1 11 2
17 5 13 3 -3 4 -12 1 -19z m-579 -39 c-3 -20 -5 -19 -9 9 -3 20 -2 29 4 23 5
-5 7 -19 5 -32z m1201 -110 c-7 -4 -13 -18 -15 -31 -1 -12 -3 -26 -3 -30 -2
-13 -60 -68 -72 -68 -7 0 -20 -7 -29 -15 -8 -8 -41 -16 -73 -19 -31 -2 -61 -7
-66 -11 -6 -3 -33 6 -61 20 -38 19 -55 35 -66 61 -8 19 -18 32 -23 30 -5 -3 3
-28 16 -57 14 -28 22 -57 19 -65 -8 -20 14 -74 30 -74 8 0 22 -4 32 -9 73 -36
92 -42 100 -37 6 3 22 2 36 -4 15 -5 26 -6 26 0 0 4 -8 11 -17 13 -10 3 -4 5
13 4 24 -1 30 -5 26 -17 -3 -8 7 -3 23 12 15 15 31 25 36 22 5 -3 9 1 9 10 0
19 20 26 43 14 14 -7 20 -3 32 25 8 19 21 37 29 40 9 4 19 25 22 47 4 23 10
37 13 31 10 -16 2 -146 -9 -149 -6 -2 -10 -11 -10 -20 -1 -24 -21 -48 -47 -54
-25 -7 -26 -6 -17 16 3 9 15 16 25 16 13 0 19 7 19 22 0 20 -1 20 -17 5 -53
-48 -64 -57 -77 -57 -8 0 -17 6 -19 13 -7 16 -29 -13 -22 -30 5 -15 -35 -39
-44 -26 -10 13 -58 15 -82 3 -16 -9 -20 -9 -14 0 6 9 3 9 -13 1 -11 -6 -28 -8
-36 -5 -12 5 -16 0 -16 -19 0 -13 -7 -30 -15 -37 -12 -10 -17 -5 -32 27 -10
21 -28 42 -40 48 -13 5 -23 14 -23 20 0 14 -37 45 -44 38 -3 -4 -6 1 -6 9 0 9
-6 21 -14 27 -8 7 -18 27 -22 44 -3 17 -10 38 -15 47 -9 17 -42 119 -44 135
-3 25 -26 65 -37 65 -9 0 -9 3 1 9 11 7 12 13 3 23 -9 11 -9 17 0 26 19 19 30
14 23 -10 -4 -14 -3 -18 2 -11 19 26 55 -33 47 -75 -4 -17 -1 -32 5 -36 6 -4
9 -11 6 -16 -8 -14 15 -98 31 -111 18 -14 19 3 3 33 -10 18 -9 20 5 15 11 -4
16 -1 16 11 0 10 7 27 15 38 15 20 21 59 8 51 -5 -3 -8 5 -8 16 -1 12 -4 36
-8 52 -5 20 4 9 29 -33 26 -47 39 -60 48 -53 9 7 20 5 37 -7 l24 -16 -18 27
c-15 23 -16 34 -4 25 2 -2 11 3 19 9 12 11 17 9 26 -11 6 -14 20 -30 31 -36
18 -9 21 -6 29 27 5 21 10 51 11 68 1 35 14 50 35 42 12 -5 16 -22 16 -71 0
-74 10 -78 47 -21 26 39 53 38 53 -1 0 -13 4 -24 10 -24 13 0 25 26 41 90 l14
55 3 -54 c2 -35 -1 -57 -9 -62z m-836 39 c-3 -18 -10 -37 -14 -42 -5 -6 -9
-17 -8 -25 0 -11 2 -12 6 -3 2 6 11 12 18 12 7 0 15 7 19 15 3 8 1 15 -4 15
-11 0 -14 33 -4 43 14 14 24 -6 12 -21 -12 -15 -11 -16 4 -3 10 7 15 17 12 22
-3 5 0 9 5 9 6 0 11 -5 11 -11 0 -5 4 -8 9 -5 19 12 1 -65 -21 -88 -23 -26
-23 -26 -54 -7 -28 17 -44 53 -21 48 5 -1 12 4 14 11 3 6 0 12 -6 12 -15 0
-14 23 1 38 20 20 28 13 21 -20z m117 -33 c0 -23 -46 -70 -55 -56 -2 5 2 14
10 21 8 7 15 18 15 25 0 8 6 15 13 18 10 4 10 7 0 18 -7 7 -13 18 -13 24 1 20
30 -29 30 -50z m-704 -11 c-10 -23 -11 -23 -14 -3 -5 30 7 57 17 40 5 -7 3
-24 -3 -37z m1689 -10 c14 -15 22 -31 19 -36 -4 -6 -10 -5 -15 3 -7 12 -9 11
-10 -1 -2 -29 -6 -65 -7 -77 -1 -6 -9 -19 -18 -27 -29 -30 -31 -22 -25 142 1
30 26 28 56 -4z m-1733 -76 c-8 -8 -9 -4 -6 13 4 17 1 14 -10 -8 -8 -18 -20
-33 -26 -33 -14 0 -13 6 13 50 l22 39 9 -25 c5 -16 4 -30 -2 -36z m1768 -19
c0 -11 -4 -17 -10 -14 -5 3 -10 13 -10 21 0 8 5 14 10 14 6 0 10 -9 10 -21z
m-1817 -43 c6 -14 -10 -36 -27 -36 -6 0 -5 5 1 11 6 6 9 18 6 25 -3 8 -1 14 5
14 5 0 12 -6 15 -14z m-46 -28 c-3 -8 -6 -5 -6 6 -1 11 2 17 5 13 3 -3 4 -12
1 -19z m-16 -98 c5 0 9 -5 9 -11 0 -5 -4 -7 -10 -4 -5 3 -10 1 -10 -6 0 -6 8
-9 19 -6 17 4 17 1 7 -27 -6 -17 -14 -33 -18 -36 -12 -10 -30 -310 -26 -442 3
-94 1 -123 -6 -102 -5 16 -10 124 -10 239 1 166 4 222 18 267 13 47 14 64 5
100 -8 29 -9 57 -3 83 l9 40 3 -47 c2 -27 7 -48 13 -48z m1580 43 c-12 -20
-14 -14 -5 12 4 9 9 14 11 11 3 -2 0 -13 -6 -23z m297 -90 c9 -9 9 -13 2 -13
-6 0 -8 -5 -5 -10 4 -6 12 -7 18 -4 7 4 9 3 4 -1 -4 -5 -16 -9 -27 -10 -15 -1
-20 5 -20 21 0 13 -4 26 -10 29 -5 3 -10 11 -10 17 0 10 18 -1 48 -29z m249
-30 c-2 -16 -4 -5 -4 22 0 28 2 40 4 28 2 -13 2 -35 0 -50z m-284 -56 c3 -7
-4 -31 -14 -53 l-19 -39 6 40 c4 22 7 46 7 53 0 16 13 16 20 -1z m427 9 c0 -2
-7 -6 -15 -10 -8 -3 -15 -1 -15 4 0 6 7 10 15 10 8 0 15 -2 15 -4z m-337 -38
c6 -22 5 -22 -8 -4 -17 22 -20 40 -6 32 5 -3 11 -16 14 -28z m361 -14 c4 -16
12 -37 17 -46 17 -33 9 -31 -37 12 -25 23 -48 39 -51 36 -3 -3 6 -15 21 -27
15 -11 38 -43 51 -70 29 -56 27 -64 -4 -16 -11 17 -21 27 -21 20 0 -7 -12 -1
-27 13 -15 14 -33 22 -40 19 -8 -2 -11 0 -8 5 10 16 -7 12 -28 -7 -20 -18 -20
-18 -2 10 9 15 21 27 26 27 4 0 24 -14 44 -31 19 -17 35 -26 35 -20 0 5 -15
22 -34 37 -28 23 -32 30 -23 45 10 16 14 16 39 3 29 -15 37 -8 16 15 -11 11
-10 13 2 9 8 -3 19 -18 24 -34z m-1817 -21 c-3 -10 -5 -2 -5 17 0 19 2 27 5
18 2 -10 2 -26 0 -35z m1433 7 c0 12 2 12 13 1 10 -11 10 -14 0 -18 -7 -3 -13
-11 -13 -19 0 -8 -7 -14 -16 -14 -14 0 -14 -3 -4 -15 11 -13 10 -21 -1 -43
-20 -39 -33 -51 -76 -68 l-38 -16 19 21 c10 11 23 18 29 14 6 -4 8 0 4 10 -4
11 -1 17 9 17 9 0 12 -5 8 -12 -4 -8 -2 -8 7 1 11 11 11 14 1 18 -8 3 -10 9
-4 16 18 24 22 46 6 40 -22 -8 -17 7 11 29 14 11 25 27 25 36 0 15 2 15 10 2
8 -13 10 -13 10 0z m-1860 -10 c0 -5 -2 -10 -4 -10 -3 0 -8 5 -11 10 -3 6 -1
10 4 10 6 0 11 -4 11 -10z m2309 -39 c7 -5 10 -14 6 -20 -5 -9 -10 -9 -21 0
-26 22 -14 38 15 20z m-174 -59 c29 -36 44 -65 44 -82 0 -8 -9 1 -19 22 -11
20 -37 51 -57 68 -32 27 -34 31 -13 25 13 -4 33 -19 45 -33z m-2123 -95 c1
-85 -2 -111 -16 -132 -25 -37 -28 -27 -10 30 11 36 14 76 11 138 -3 52 -1 85
4 80 5 -5 10 -57 11 -116z m1788 113 c0 -5 -4 -10 -10 -10 -5 0 -10 5 -10 10
0 6 5 10 10 10 6 0 10 -4 10 -10z m-1763 -32 c-3 -7 -5 -2 -5 12 0 14 2 19 5
13 2 -7 2 -19 0 -25z m2058 10 c27 -21 27 -22 6 -30 -12 -4 -26 -18 -31 -30
l-9 -23 0 23 c-1 12 6 25 14 28 22 9 18 22 -12 38 -18 10 -22 15 -12 16 9 0
29 -10 44 -22z m-320 2 c3 -5 1 -10 -4 -10 -6 0 -11 5 -11 10 0 6 2 10 4 10 3
0 8 -4 11 -10z m255 0 c0 -5 -5 -10 -11 -10 -5 0 -7 5 -4 10 3 6 8 10 11 10 2
0 4 -4 4 -10z m220 -34 c0 -12 -5 -7 -19 24 -11 24 -11 24 3 6 9 -11 16 -24
16 -30z m-2750 9 c0 -8 -4 -15 -10 -15 -5 0 -10 7 -10 15 0 8 5 15 10 15 6 0
10 -7 10 -15z m-55 -25 c-17 -33 -20 -74 -5 -65 19 12 10 -11 -10 -25 -11 -8
-20 -22 -20 -32 0 -10 -4 -18 -10 -18 -5 0 -10 -7 -10 -15 0 -8 -4 -15 -9 -15
-5 0 -11 -10 -15 -22 -4 -17 -8 -20 -14 -10 -10 15 -23 3 -36 -33 -8 -19 -8
-19 -17 4 -5 13 -8 29 -5 35 2 6 5 2 6 -9 1 -30 39 43 40 77 0 36 17 78 30 78
6 0 8 -4 5 -10 -3 -5 -2 -10 4 -10 6 0 17 11 26 25 8 14 22 36 30 50 21 35 29
31 10 -5z m2557 -22 c57 -64 61 -69 54 -76 -4 -3 -16 7 -29 23 -12 16 -35 43
-51 62 -41 48 -19 40 26 -9z m-2541 5 c-8 -15 -10 -15 -11 -2 0 17 10 32 18
25 2 -3 -1 -13 -7 -23z m2481 2 c6 -14 15 -25 20 -25 12 0 58 -50 58 -63 0 -6
-12 0 -26 14 -41 38 -87 99 -75 99 6 0 17 -11 23 -25z m353 -90 c-14 -32 -25
-66 -25 -76 0 -11 -4 -19 -10 -19 -21 0 -8 52 38 150 28 59 26 9 -3 -55z m65
65 c0 -11 -11 -47 -25 -80 -14 -33 -25 -69 -25 -80 0 -11 -4 -20 -10 -20 -17
0 -11 48 15 105 13 30 24 58 25 60 0 3 0 12 0 20 0 8 5 15 10 15 6 0 10 -9 10
-20z m53 13 c-7 -2 -19 -2 -25 0 -7 3 -2 5 12 5 14 0 19 -2 13 -5z m-3095 -47
c-14 -15 -28 -48 -35 -83 l-12 -58 3 69 c4 61 7 71 32 91 36 29 45 14 12 -19z
m2503 -5 c24 -15 27 -20 14 -25 -11 -4 -14 -2 -10 7 4 6 0 4 -8 -6 -9 -11 -21
-15 -32 -11 -16 6 -16 8 -1 16 15 8 15 11 1 31 -8 12 -15 26 -15 32 0 5 5 2
11 -8 6 -10 24 -26 40 -36z m-2541 29 c0 -5 -5 -10 -11 -10 -5 0 -7 5 -4 10 3
6 8 10 11 10 2 0 4 -4 4 -10z m260 2 c0 -15 -24 -32 -47 -32 -26 0 -28 5 -10
25 13 15 57 20 57 7z m2894 -16 c-12 -9 -15 -20 -10 -39 3 -15 2 -27 -3 -27
-9 0 -21 33 -21 62 0 9 8 18 18 21 26 6 35 -3 16 -17z m-2969 -56 c-4 -12 -9
-19 -12 -17 -3 3 -2 15 2 27 4 12 9 19 12 17 3 -3 2 -15 -2 -27z m2235 15 c30
-7 52 -14 48 -14 -5 -1 -9 -1 -10 0 -2 0 -15 -4 -29 -10 -20 -7 -32 -6 -45 4
-11 8 -27 15 -36 15 -10 0 -18 5 -18 10 0 13 23 12 90 -5z m-1456 -16 c26 -21
34 -39 16 -39 -5 0 -10 6 -10 14 0 20 -16 29 -40 21 -21 -7 -29 -58 -10 -70
16 -10 12 -45 -5 -45 -8 0 -16 -6 -16 -12 -5 -37 -3 -54 6 -60 7 -5 7 -8 0 -8
-5 0 -27 18 -48 39 -23 24 -55 44 -83 52 -33 10 -43 17 -38 29 4 8 9 25 11 38
5 23 25 28 100 24 23 -1 35 4 43 18 14 26 40 25 74 -1z m2370 15 c9 -3 16 -12
16 -19 0 -7 4 -15 10 -17 13 -4 -4 -64 -18 -61 -6 2 -9 -3 -6 -10 3 -8 0 -26
-6 -42 -7 -18 -7 -32 -1 -38 6 -6 13 5 21 31 12 48 20 55 38 36 10 -11 10 -14
-1 -14 -8 0 -19 -18 -26 -41 -15 -50 -32 -46 -50 10 -11 36 -11 48 3 92 13 39
14 54 5 65 -13 15 -9 17 15 8z m-1049 -24 c3 -5 -3 -10 -15 -10 -12 0 -18 5
-15 10 3 6 10 10 15 10 5 0 12 -4 15 -10z m1025 -14 c0 -8 -10 -31 -21 -51
-15 -25 -20 -45 -15 -68 5 -32 5 -32 -8 -7 -15 26 -11 124 4 115 4 -3 10 2 14
10 7 19 26 20 26 1z m-2120 -10 c0 -3 -4 -8 -10 -11 -5 -3 -10 -1 -10 4 0 6 5
11 10 11 6 0 10 -2 10 -4z m137 -7 c15 -15 4 -51 -14 -45 -8 3 -17 6 -19 6 -3
0 -2 5 1 10 3 6 1 10 -4 10 -14 0 -14 -37 -1 -43 6 -3 5 -4 -2 -3 -14 3 -23
40 -14 62 6 17 37 19 53 3z m1853 1 c0 -5 -2 -10 -4 -10 -3 0 -8 5 -11 10 -3
6 -1 10 4 10 6 0 11 -4 11 -10z m60 -23 c0 -6 -5 -26 -12 -44 -10 -27 -10 -38
1 -56 12 -19 12 -20 0 -11 -8 6 -26 9 -41 7 -21 -3 -28 1 -28 12 0 11 -6 15
-19 10 -13 -4 -20 0 -24 16 -9 35 4 44 24 18 l19 -24 0 28 c0 18 4 26 11 21 6
-3 9 -17 6 -31 -3 -16 1 -27 14 -34 15 -7 17 -6 13 6 -3 8 -1 28 4 45 7 18 7
32 1 35 -5 4 -7 10 -4 15 7 12 35 1 35 -13z m-2180 -8 c14 -25 6 -49 -15 -49
-8 0 -15 -6 -15 -12 0 -7 -9 -3 -18 10 -17 22 -19 22 -32 7 -19 -23 -68 -47
-75 -36 -3 5 9 12 26 16 22 5 29 11 25 22 -4 11 -2 13 9 9 10 -3 20 5 30 24
18 35 49 39 65 9z m-691 -75 c8 -79 3 -104 -24 -104 -6 0 -17 10 -23 23 l-11
22 0 -22 c-1 -13 -5 -23 -9 -23 -5 0 -15 -18 -22 -40 -13 -39 -30 -45 -30 -10
0 10 -7 23 -16 28 -14 8 -14 12 -3 30 17 27 29 28 29 3 0 -11 5 -23 10 -26 6
-4 10 10 10 34 0 23 5 41 10 41 6 0 10 21 11 48 0 33 3 41 8 27 8 -19 8 -19
16 4 7 23 27 52 32 47 2 -1 7 -38 12 -82z m766 67 c-3 -10 -6 -35 -7 -55 -1
-23 -6 -36 -15 -36 -15 0 -12 55 6 89 14 26 24 27 16 2z m96 -32 c-5 -13 -10
-19 -10 -12 -1 15 10 45 15 40 3 -2 0 -15 -5 -28z m-21 -26 c0 -12 -33 -43
-46 -43 -16 0 -27 34 -19 60 6 19 8 19 36 5 16 -9 29 -18 29 -22z m170 27 c0
-5 -4 -10 -10 -10 -5 0 -10 5 -10 10 0 6 5 10 10 10 6 0 10 -4 10 -10z m2080
-4 c0 -8 -4 -18 -10 -21 -5 -3 -10 3 -10 14 0 12 5 21 10 21 6 0 10 -6 10 -14z
m-2050 -33 c0 -20 -3 -24 -11 -16 -7 7 -9 19 -6 27 10 24 17 19 17 -11z
m-1660 7 c0 -5 -4 -10 -10 -10 -5 0 -10 5 -10 10 0 6 5 10 10 10 6 0 10 -4 10
-10z m3763 -30 c3 -11 1 -23 -4 -26 -5 -3 -9 1 -9 10 0 8 -3 22 -7 32 -4 11
-3 15 4 11 6 -4 13 -16 16 -27z m-2763 -27 c0 -7 -6 -13 -14 -13 -15 0 -29 38
-19 53 7 12 33 -20 33 -40z m593 40 c-7 -2 -21 -2 -30 0 -10 3 -4 5 12 5 17 0
24 -2 18 -5z m136 -37 c-9 -8 -10 -7 -5 7 3 10 7 24 7 30 1 7 3 4 6 -7 3 -10
-1 -23 -8 -30z m1933 3 c12 -8 17 -69 6 -69 -4 0 -12 -18 -18 -41 -6 -23 -14
-38 -17 -35 -3 3 -12 1 -20 -5 -9 -8 -13 -8 -13 -1 0 6 6 15 13 19 14 8 50
103 43 111 -10 10 -26 -11 -32 -43 -3 -19 -10 -35 -15 -35 -5 0 -7 11 -3 25 4
15 1 32 -7 41 -10 12 -10 15 0 12 13 -3 24 11 37 47 l7 20 5 -20 c2 -11 9 -23
14 -26z m-2041 8 c-10 -9 -11 -8 -5 6 3 10 9 15 12 12 3 -3 0 -11 -7 -18z
m2118 -32 c-8 -7 -49 33 -49 48 0 6 12 -1 27 -15 15 -15 25 -30 22 -33z
m-2479 25 c0 -5 -19 -10 -42 -9 -33 0 -38 2 -23 9 28 12 65 12 65 0z m-231
-39 c8 -5 9 -11 3 -15 -5 -3 -15 1 -22 9 -14 16 -3 20 19 6z m2519 -54 l-3
-22 -13 23 c-8 13 -11 31 -7 40 6 16 7 16 16 -1 6 -10 9 -28 7 -40z m-3908
-19 c0 -5 -9 -8 -20 -8 -16 0 -20 7 -20 38 l0 37 20 -30 c11 -16 20 -33 20
-37z m1385 32 c3 -5 2 -10 -4 -10 -5 0 -13 5 -16 10 -3 6 -2 10 4 10 5 0 13
-4 16 -10z m-554 -35 c5 4 9 -1 9 -9 0 -9 -6 -16 -14 -16 -9 0 -14 -12 -13
-37 1 -70 -3 -94 -13 -88 -5 3 -10 15 -10 25 0 10 -9 21 -20 25 -19 6 -22 27
-8 50 3 6 9 25 13 43 5 23 11 32 21 28 8 -3 15 0 15 7 1 7 4 2 6 -11 2 -12 9
-20 14 -17z m3184 -80 c-20 -64 -24 -90 -16 -98 6 -6 11 -16 11 -21 0 -6 -7 0
-16 12 -8 12 -13 30 -11 40 23 83 52 171 55 163 2 -6 -9 -49 -23 -96z m-3475
40 c0 -8 6 -12 14 -9 8 3 16 -2 19 -13 3 -14 5 -12 11 10 10 34 26 35 26 1 0
-19 4 -25 15 -20 10 3 17 -3 21 -19 7 -29 30 -33 37 -7 4 14 6 14 12 -5 4 -13
14 -23 21 -23 18 0 18 -21 0 -46 -14 -18 -15 -18 -21 9 -6 22 -10 25 -21 16
-8 -6 -14 -8 -14 -3 0 5 -5 2 -10 -6 -8 -13 -10 -12 -10 3 0 29 -17 19 -24
-14 -5 -27 -8 -30 -21 -19 -13 11 -14 8 -9 -21 6 -33 6 -33 -9 -13 -15 20 -57
154 -57 181 0 7 5 13 10 13 6 0 10 -7 10 -15z m643 -5 c-3 -12 -8 -19 -11 -16
-5 6 5 36 12 36 2 0 2 -9 -1 -20z m-823 -116 c21 -105 5 -104 -19 1 -13 55
-26 107 -28 115 -2 8 5 -1 15 -20 11 -19 25 -63 32 -96z m-360 70 c0 -8 -4
-12 -10 -9 -5 3 -10 13 -10 21 0 8 5 12 10 9 6 -3 10 -13 10 -21z m4056 -18
c4 -24 1 -42 -10 -58 -12 -17 -16 -19 -16 -6 0 9 5 20 10 23 6 3 10 16 9 28 0
18 -3 16 -15 -12 -20 -45 -28 -33 -12 18 16 50 25 52 34 7z m-3661 -28 c16
-41 31 -157 18 -143 -5 6 -15 40 -22 77 -6 37 -14 74 -17 83 -12 30 7 14 21
-17z m632 -9 c-6 -10 -13 -16 -16 -13 -3 2 0 9 6 15 6 6 9 19 6 28 -4 13 -3
13 5 2 7 -10 7 -20 -1 -32z m-150 -1 c-3 -7 -5 -2 -5 12 0 14 2 19 5 13 2 -7
2 -19 0 -25z m-880 -20 c-3 -8 -6 -5 -6 6 -1 11 2 17 5 13 3 -3 4 -12 1 -19z
m4260 -30 c-2 -13 -4 -5 -4 17 -1 22 1 32 4 23 2 -10 2 -28 0 -40z m-4887 18
c0 -13 6 -36 14 -50 10 -21 15 -23 19 -11 10 26 30 18 23 -10 -4 -14 1 -41 10
-62 17 -40 28 -173 14 -173 -5 0 -6 -9 -3 -20 4 -16 2 -19 -11 -14 -9 3 -16
10 -16 15 0 5 -5 9 -10 9 -6 0 -8 -11 -4 -27 7 -27 6 -28 -13 -10 -11 9 -23
17 -27 17 -4 0 -16 8 -27 19 -17 16 -19 26 -13 70 7 51 17 64 28 36 8 -21 26
-19 26 3 0 14 4 12 21 -8 l21 -25 -6 39 c-7 55 -42 102 -75 101 -23 0 -26 -4
-23 -33 1 -18 -3 -32 -9 -32 -7 0 -9 -12 -5 -34 6 -32 5 -33 -20 -28 -22 4
-26 2 -21 -12 4 -10 1 -16 -7 -16 -8 0 -16 5 -18 11 -6 19 4 89 12 84 5 -3 8
8 8 25 -1 16 6 38 15 48 10 10 17 24 17 30 0 6 10 26 23 46 26 41 57 48 57 12z
m769 3 l22 -21 -22 -19 c-15 -13 -19 -22 -12 -31 14 -19 24 -50 14 -44 -10 6
-61 91 -61 100 0 3 7 6 16 6 10 0 14 6 10 15 -8 21 6 19 33 -6z m4043 -80
c-50 -137 -102 -253 -110 -244 -3 3 0 15 6 28 35 72 112 271 113 294 l2 28 4
-26 c2 -15 -5 -51 -15 -80z m-97 20 c-8 -19 -13 -25 -9 -14 3 11 9 36 12 55 5
25 7 29 10 14 2 -12 -4 -37 -13 -55z m-3195 -18 c0 -17 -3 -32 -8 -35 -4 -2
-8 11 -8 30 0 19 3 34 8 34 4 0 8 -13 8 -29z m-365 -69 c-5 -5 -25 43 -25 61
1 7 7 -3 16 -22 8 -19 12 -36 9 -39z m293 43 c-3 -3 -9 2 -12 12 -6 14 -5 15
5 6 7 -7 10 -15 7 -18z m-588 -22 c0 -7 7 -13 15 -13 8 0 15 -4 15 -10 0 -15
-17 -12 -40 7 -24 21 -25 30 -5 30 8 0 15 -6 15 -14z m730 -29 c0 -21 -4 -33
-10 -29 -5 3 -10 19 -10 36 0 16 5 29 10 29 6 0 10 -16 10 -36z m4124 21 c-4
-8 -10 -12 -15 -9 -11 6 -2 24 11 24 5 0 7 -7 4 -15z m-4097 -17 c-3 -8 -6 -5
-6 6 -1 11 2 17 5 13 3 -3 4 -12 1 -19z m3091 -15 c-17 -36 -48 -44 -47 -11 0
20 1 21 8 5 6 -15 9 -16 17 -5 6 7 14 22 18 32 3 10 9 16 12 13 3 -3 0 -18 -8
-34z m1072 27 c0 -5 -7 -10 -15 -10 -8 0 -15 5 -15 10 0 6 7 10 15 10 8 0 15
-4 15 -10z m-5230 -226 c0 -4 -9 5 -21 19 -24 31 -89 170 -89 189 1 12 110
-195 110 -208z m-360 176 c6 -11 8 -20 6 -20 -3 0 -10 9 -16 20 -6 11 -8 20
-6 20 3 0 10 -9 16 -20z m5700 -9 c0 -10 -30 -24 -37 -17 -3 3 -2 9 2 15 8 13
35 15 35 2z m-4732 -66 c14 -27 14 -29 -1 -17 -9 8 -26 30 -38 50 l-21 37 22
-20 c12 -11 29 -33 38 -50z m3735 45 c-3 -12 -8 -19 -11 -16 -5 6 5 36 12 36
2 0 2 -9 -1 -20z m-224 -34 c-9 -8 -10 -7 -5 7 3 10 7 24 7 30 1 7 3 4 6 -7 3
-10 -1 -23 -8 -30z m-4438 -44 c-7 -2 -6 -14 4 -38 7 -18 10 -36 5 -39 -11 -7
-23 12 -16 24 3 5 -1 14 -9 21 -9 8 -15 8 -15 2 0 -15 -30 -8 -41 9 -12 19
-11 32 2 23 7 -4 9 1 7 14 -2 11 6 30 17 41 l19 22 19 -38 c13 -24 16 -38 8
-41z m889 3 c0 -5 -9 4 -20 20 -11 17 -20 35 -20 40 0 6 9 -3 20 -20 11 -16
20 -34 20 -40z m4755 45 c21 -6 24 -8 10 -9 -12 -1 -25 -5 -30 -10 -16 -16
-85 -25 -85 -12 0 7 -13 11 -35 9 -48 -4 -48 13 0 27 40 12 83 10 140 -5z
m-4294 -12 c11 -21 11 -22 -4 -9 -10 7 -17 17 -17 22 0 15 9 10 21 -13z m49
-4 c0 -20 -7 -17 -20 6 -9 16 -8 18 5 14 8 -4 15 -12 15 -20z m3213 -19 c-3
-9 -8 -14 -10 -11 -3 3 -2 9 2 15 9 16 15 13 8 -4z m-4930 -39 c33 -59 42 -97
22 -90 -8 4 -23 0 -32 -7 -15 -13 -15 -12 -4 9 7 13 10 26 8 29 -3 2 -10 -5
-16 -16 -18 -32 6 -63 42 -55 16 3 27 1 27 -5 0 -6 -7 -11 -16 -11 -9 0 -13
-5 -10 -12 3 -7 9 -21 12 -30 4 -10 11 -18 16 -18 5 0 6 -4 3 -10 -3 -5 -1
-19 5 -31 11 -19 10 -20 -9 -9 -12 6 -21 15 -21 21 0 6 -4 8 -9 5 -16 -10 -43
5 -32 18 6 6 9 19 7 29 -3 21 -26 47 -26 30 0 -6 6 -14 13 -16 8 -4 6 -6 -4
-6 -12 -1 -15 -8 -11 -26 2 -14 1 -25 -2 -25 -11 0 -29 53 -31 93 -2 30 0 37
12 33 9 -4 11 -2 6 7 -10 17 -10 87 0 87 5 0 6 11 3 25 -11 42 20 30 47 -19z
m411 -6 c-6 -5 -24 21 -24 34 0 6 6 1 14 -10 8 -10 12 -21 10 -24z m4424 -11
c1 -23 -6 -52 -15 -66 -9 -13 -17 -38 -19 -55 -5 -42 -14 -49 -14 -10 0 25 39
172 46 172 1 0 2 -19 2 -41z m-48 -29 c0 -16 -4 -30 -8 -30 -5 0 -7 14 -4 30
2 17 6 30 8 30 2 0 4 -13 4 -30z m-4491 -24 c1 -5 -2 -6 -6 -3 -3 4 -12 2 -19
-4 -20 -16 -25 5 -7 31 16 22 17 23 24 4 4 -10 8 -23 8 -28z m531 13 c15 -28
5 -23 -15 7 -9 15 -12 23 -6 20 6 -4 16 -16 21 -27z m5010 10 c0 -14 -17 -10
-23 5 -4 10 -1 13 9 9 7 -3 14 -9 14 -14z m-5350 -33 c0 -12 -5 -7 -19 24 -11
24 -11 24 3 6 9 -11 16 -24 16 -30z m4505 -8 c-13 -43 -57 -127 -73 -140 -10
-8 -7 0 6 19 12 17 22 34 22 38 0 11 42 105 47 105 2 0 1 -10 -2 -22z m31 -51
c-2 -7 -5 -1 -5 13 -1 20 -3 22 -11 10 -5 -8 -10 -26 -11 -40 0 -14 -3 -19 -6
-12 -3 7 1 33 8 58 l14 45 8 -31 c4 -18 6 -37 3 -43z m11 51 c-3 -8 -6 -5 -6
6 -1 11 2 17 5 13 3 -3 4 -12 1 -19z m-187 -17 c0 -10 -9 -29 -20 -42 l-21
-24 16 39 c8 21 15 40 15 42 0 2 2 4 5 4 3 0 5 -9 5 -19z m89 -53 c-12 -24
-24 -37 -27 -30 -2 7 3 21 12 31 9 10 16 24 16 31 0 9 -5 7 -16 -6 -15 -18
-15 -18 -5 3 11 22 34 35 39 22 2 -4 -7 -27 -19 -51z m-4460 22 c11 -24 11
-24 -3 -6 -9 11 -16 24 -16 30 0 12 5 7 19 -24z m5871 1 c0 -17 -37 -54 -47
-48 -6 4 -8 18 -5 32 3 18 11 25 28 25 13 0 24 -4 24 -9z m-610 -19 c0 -10
-21 -32 -31 -32 -4 0 -5 9 -2 20 5 19 33 29 33 12z m-5983 -34 c-3 -7 -5 -2
-5 12 0 14 2 19 5 13 2 -7 2 -19 0 -25z m308 22 c3 -5 1 -10 -4 -10 -6 0 -11
5 -11 10 0 6 2 10 4 10 3 0 8 -4 11 -10z m4812 -12 c-3 -8 -6 -5 -6 6 -1 11 2
17 5 13 3 -3 4 -12 1 -19z m993 -34 c14 -35 4 -46 -33 -39 -46 10 -55 23 -24
34 15 6 27 15 27 21 0 20 21 9 30 -16z m-1068 -16 c-8 -8 -9 -4 -5 13 4 13 8
18 11 10 2 -7 -1 -18 -6 -23z m218 3 c-6 -12 -8 -21 -5 -21 3 0 0 -6 -7 -14
-23 -25 -28 5 -5 36 23 31 35 31 17 -1z m70 -1 c-6 -12 -14 -19 -17 -17 -2 3
1 15 7 27 6 12 14 19 17 17 2 -3 -1 -15 -7 -27z m-130 0 c-6 -11 -13 -20 -16
-20 -2 0 0 9 6 20 6 11 13 20 16 20 2 0 0 -9 -6 -20z m-5056 -37 c3 -8 -1 -10
-12 -6 -18 7 -32 22 -32 36 0 11 39 -15 44 -30z m4992 -25 c-3 -18 -23 -51
-44 -74 -20 -22 -30 -31 -21 -20 29 36 59 90 59 106 -1 8 -9 -1 -19 -20 -11
-19 -29 -44 -42 -55 l-23 -20 23 35 c12 19 29 50 38 68 20 39 38 28 29 -20z
m764 12 c0 -5 -4 -10 -10 -10 -5 0 -10 5 -10 10 0 6 5 10 10 10 6 0 10 -4 10
-10z m-5790 -21 c0 -5 -4 -9 -10 -9 -5 0 -10 7 -10 16 0 8 5 12 10 9 6 -3 10
-10 10 -16z m5898 -6 c2 -8 -6 -13 -22 -13 -28 0 -43 15 -24 23 20 8 41 3 46
-10z m-714 -38 c-10 -15 -20 -23 -22 -17 -3 10 29 52 36 46 2 -1 -4 -15 -14
-29z m706 -5 c0 -5 -14 -10 -31 -10 -17 0 -28 4 -24 10 3 6 17 10 31 10 13 0
24 -4 24 -10z m-695 -29 c-8 -17 -19 -33 -25 -36 -5 -3 -1 10 11 29 25 43 36
48 14 7z m1718 -5 c5 -14 -10 -36 -25 -36 -4 0 -8 11 -8 25 0 27 24 35 33 11z
m-6433 -21 c0 -9 -6 -12 -16 -8 -13 5 -13 7 -2 14 17 11 18 11 18 -6z m4670 2
c0 -7 -34 -42 -55 -57 -11 -8 -4 3 14 23 33 35 41 42 41 34z m30 -41 c0 -2 -8
-10 -17 -17 -16 -13 -17 -12 -4 4 13 16 21 21 21 13z m2097 -43 c-3 -10 -5 -4
-5 12 0 17 2 24 5 18 2 -7 2 -21 0 -30z m-2157 3 c0 -3 -4 -8 -10 -11 -5 -3
-10 -1 -10 4 0 6 5 11 10 11 6 0 10 -2 10 -4z m970 -55 c0 -14 -18 -23 -30
-16 -6 4 -8 11 -5 16 8 12 35 12 35 0z m840 -1 c0 -5 -4 -10 -10 -10 -5 0 -10
5 -10 10 0 6 5 10 10 10 6 0 10 -4 10 -10z m-1160 -20 c0 -5 -4 -10 -10 -10
-5 0 -10 5 -10 10 0 6 5 10 10 10 6 0 10 -4 10 -10z m259 -20 c0 -14 -3 -19
-6 -12 -2 7 -22 12 -44 12 -21 0 -39 4 -39 9 0 12 17 17 57 17 29 -1 33 -4 32
-26z m531 -20 c0 -5 -5 -10 -11 -10 -5 0 -7 5 -4 10 3 6 8 10 11 10 2 0 4 -4
4 -10z m-1610 -54 c0 -2 -12 -11 -27 -20 l-28 -17 24 20 c23 21 31 25 31 17z
m1538 -22 c61 -7 65 -24 8 -38 -27 -7 -43 -6 -58 3 -11 7 -17 8 -13 2 3 -6 4
-11 1 -11 -2 0 -12 -3 -22 -7 -12 -4 -15 -3 -10 5 4 7 2 12 -4 12 -7 0 -9 9
-6 23 3 12 3 16 0 9 -6 -12 -24 -7 -24 7 0 7 18 7 128 -5z m72 6 c0 -5 -2 -10
-4 -10 -3 0 -8 5 -11 10 -3 6 -1 10 4 10 6 0 11 -4 11 -10z m-213 -16 c-3 -3
-12 -4 -19 -1 -8 3 -5 6 6 6 11 1 17 -2 13 -5z m-34 -51 c-7 -2 -21 -2 -30 0
-10 3 -4 5 12 5 17 0 24 -2 18 -5z m784 -50 c-3 -10 -5 -4 -5 12 0 17 2 24 5
18 2 -7 2 -21 0 -30z m-6637 7 c0 -5 -7 -10 -15 -10 -8 0 -15 5 -15 10 0 6 7
10 15 10 8 0 15 -4 15 -10z m110 -40 c0 -5 -9 -10 -21 -10 -11 0 -17 5 -14 10
3 6 13 10 21 10 8 0 14 -4 14 -10z m5969 -16 c-6 -8 -15 -14 -20 -14 -14 0
-11 28 4 33 20 7 29 -4 16 -19z m-1372 -70 c-3 -3 -12 -4 -19 -1 -8 3 -5 6 6
6 11 1 17 -2 13 -5z m1023 -14 c0 -5 -4 -10 -9 -10 -6 0 -13 5 -16 10 -3 6 1
10 9 10 9 0 16 -4 16 -10z m50 0 c0 -5 -4 -10 -10 -10 -5 0 -10 5 -10 10 0 6
5 10 10 10 6 0 10 -4 10 -10z m-5605 -10 c3 -5 2 -10 -4 -10 -5 0 -13 5 -16
10 -3 6 -2 10 4 10 5 0 13 -4 16 -10z m5925 -42 c0 -13 -23 -5 -28 10 -2 7 2
10 12 6 9 -3 16 -11 16 -16z m225 12 c3 -6 -1 -13 -10 -16 -19 -8 -30 0 -20
15 8 14 22 14 30 1z m-788 -46 c-3 -3 -12 -4 -19 -1 -8 3 -5 6 6 6 11 1 17 -2
13 -5z m-830 -111 c1 -19 -1 -22 -8 -12 -11 17 -12 39 -1 39 4 0 8 -12 9 -27z
m113 7 c0 -5 -5 -10 -11 -10 -5 0 -7 5 -4 10 3 6 8 10 11 10 2 0 4 -4 4 -10z
m400 0 c0 -5 -2 -10 -4 -10 -3 0 -8 5 -11 10 -3 6 -1 10 4 10 6 0 11 -4 11
-10z m-320 -10 c0 -5 -2 -10 -4 -10 -3 0 -8 5 -11 10 -3 6 -1 10 4 10 6 0 11
-4 11 -10z m206 -17 c-10 -10 -19 5 -10 18 6 11 8 11 12 0 2 -7 1 -15 -2 -18z
m1179 17 c3 -5 -1 -10 -10 -10 -9 0 -13 5 -10 10 3 6 8 10 10 10 2 0 7 -4 10
-10z m-1045 -20 c0 -5 -4 -10 -10 -10 -5 0 -10 5 -10 10 0 6 5 10 10 10 6 0
10 -4 10 -10z"/>
<path d="M2714 3872 c2 -9 8 -18 14 -20 17 -5 15 25 -2 31 -9 4 -13 0 -12 -11z"/>
<path d="M3170 3399 c0 -5 5 -7 10 -4 6 3 10 8 10 11 0 2 -4 4 -10 4 -5 0 -10
-5 -10 -11z"/>
<path d="M3230 3399 c0 -5 5 -7 10 -4 6 3 10 8 10 11 0 2 -4 4 -10 4 -5 0 -10
-5 -10 -11z"/>
<path d="M3193 3123 c-16 -6 -17 -33 -3 -33 11 0 26 28 19 34 -2 2 -10 1 -16
-1z"/>
<path d="M2576 3285 c-9 -26 -7 -32 5 -12 6 10 9 21 6 23 -2 3 -7 -2 -11 -11z"/>
<path d="M2553 3140 c-6 -17 -7 -30 -2 -30 9 0 24 48 17 55 -2 2 -9 -9 -15
-25z"/>
<path d="M3565 3060 c4 -6 11 -8 16 -5 14 9 11 15 -7 15 -8 0 -12 -5 -9 -10z"/>
<path d="M3285 2780 c-3 -5 -1 -10 4 -10 6 0 11 5 11 10 0 6 -2 10 -4 10 -3 0
-8 -4 -11 -10z"/>
<path d="M3765 2658 c-20 -21 -23 -27 -10 -20 24 12 62 52 49 51 -5 0 -22 -14
-39 -31z"/>
<path d="M3535 2640 c3 -5 8 -10 11 -10 2 0 4 5 4 10 0 6 -5 10 -11 10 -5 0
-7 -4 -4 -10z"/>
<path d="M3520 2616 c14 -8 27 -12 29 -10 6 6 -1 11 -29 18 l-25 7 25 -15z"/>
<path d="M3590 2610 c0 -5 5 -10 11 -10 5 0 7 5 4 10 -3 6 -8 10 -11 10 -2 0
-4 -4 -4 -10z"/>
<path d="M3410 2557 c0 -21 15 -36 28 -29 8 6 6 13 -8 25 -13 11 -20 13 -20 4z"/>
<path d="M3438 2514 c-8 -7 2 -44 12 -44 4 0 5 11 2 25 -5 27 -6 28 -14 19z"/>
<path d="M3012 2701 c-11 -6 -10 -10 4 -15 20 -8 32 0 18 14 -5 5 -15 5 -22 1z"/>
<path d="M1677 2003 c-11 -20 -16 -63 -8 -63 9 0 22 27 27 58 2 13 -12 17 -19
5z"/>
<path d="M2467 1953 c-4 -3 -26 -7 -49 -7 -39 -1 -43 -4 -46 -28 -3 -21 3 -30
27 -43 17 -8 31 -21 31 -28 1 -6 8 0 16 16 8 15 12 32 9 37 -3 5 2 21 11 35
15 23 16 33 1 18z"/>
<path d="M2475 1889 c-10 -15 3 -25 16 -12 7 7 7 13 1 17 -6 3 -14 1 -17 -5z"/>
<path d="M2746 1844 c-8 -20 -8 -24 2 -24 4 0 8 9 9 20 2 24 -3 26 -11 4z"/>
<path d="M3820 4156 c0 -2 9 -6 20 -9 11 -3 18 -1 14 4 -5 9 -34 13 -34 5z"/>
<path d="M3880 4140 c8 -5 20 -10 25 -10 6 0 3 5 -5 10 -8 5 -19 10 -25 10 -5
0 -3 -5 5 -10z"/>
<path d="M3930 4120 c20 -13 33 -13 25 0 -3 6 -14 10 -23 10 -15 0 -15 -2 -2
-10z"/>
<path d="M3978 4103 c7 -3 16 -2 19 1 4 3 -2 6 -13 5 -11 0 -14 -3 -6 -6z"/>
<path d="M4320 4083 c1 -4 7 -19 15 -33 19 -34 18 -50 -2 -25 -15 19 -15 18
-10 -19 4 -21 14 -50 24 -65 l18 -26 3 28 c4 30 -25 134 -39 143 -5 3 -9 2 -9
-3z"/>
<path d="M20 4039 c14 -6 36 -17 50 -24 14 -8 40 -21 58 -30 17 -10 32 -22 32
-27 0 -6 26 -35 57 -64 38 -37 60 -51 67 -44 19 19 35 10 47 -25 9 -24 16 -31
24 -25 7 6 15 7 19 3 4 -4 4 16 0 45 l-7 52 179 1 c186 1 208 16 28 18 -116 2
-172 10 -153 22 28 17 -5 22 -125 21 -127 -2 -150 4 -126 33 8 10 31 15 62 15
58 0 64 24 7 26 -19 1 -81 4 -139 8 -78 4 -99 2 -80 -5z"/>
<path d="M299 4029 c-15 -9 11 -26 56 -35 45 -8 302 -10 311 -1 3 3 3 14 0 24
-5 16 -20 18 -182 18 -96 0 -180 -2 -185 -6z"/>
<path d="M689 4018 c-14 -26 -12 -27 24 -17 17 5 46 9 62 8 53 -2 67 1 63 13
-3 8 -28 13 -72 13 -54 0 -70 -4 -77 -17z"/>
<path d="M1143 3969 c4 -34 13 -60 28 -75 28 -29 29 -29 59 -1 14 12 28 21 32
20 5 -2 8 6 8 17 0 11 -3 20 -8 20 -4 0 -31 16 -61 35 -29 19 -55 35 -58 35
-3 0 -3 -23 0 -51z"/>
<path d="M5271 4004 c-1 -10 26 -84 34 -93 2 -1 8 0 14 4 12 7 -13 65 -29 65
-4 0 -11 8 -13 18 -3 9 -5 12 -6 6z"/>
<path d="M6045 4000 c-3 -5 1 -10 9 -10 9 0 16 5 16 10 0 6 -4 10 -9 10 -6 0
-13 -4 -16 -10z"/>
<path d="M855 3910 c-4 -6 5 -10 19 -10 14 0 26 5 26 10 0 6 -9 10 -19 10 -11
0 -23 -4 -26 -10z"/>
<path d="M390 3791 c0 -5 5 -13 10 -16 6 -3 10 -2 10 4 0 5 -4 13 -10 16 -5 3
-10 2 -10 -4z"/>
<path d="M5796 3741 c-9 -14 18 -31 42 -24 33 8 28 33 -7 33 -17 0 -32 -4 -35
-9z"/>
<path d="M5910 3730 c-13 -9 -13 -10 0 -10 8 0 22 5 30 10 13 9 13 10 0 10 -8
0 -22 -5 -30 -10z"/>
<path d="M262 3670 c0 -14 2 -19 5 -12 2 6 2 18 0 25 -3 6 -5 1 -5 -13z"/>
<path d="M5752 3635 c-31 -22 -32 -24 -13 -30 26 -8 62 3 78 24 27 37 -16 41
-65 6z"/>
<path d="M262 3620 c0 -14 2 -19 5 -12 2 6 2 18 0 25 -3 6 -5 1 -5 -13z"/>
<path d="M341 3614 c0 -11 3 -14 6 -6 3 7 2 16 -1 19 -3 4 -6 -2 -5 -13z"/>
<path d="M5598 3565 c3 -16 11 -25 24 -25 10 0 16 5 13 10 -3 6 3 10 14 10 11
0 23 4 26 10 4 6 -6 7 -25 4 -19 -4 -30 -2 -30 5 0 6 -6 11 -14 11 -9 0 -12
-8 -8 -25z"/>
<path d="M5527 3493 c-14 -13 -6 -24 15 -21 27 4 36 28 11 28 -11 0 -23 -3
-26 -7z"/>
<path d="M5405 3399 c-28 -27 -29 -29 -8 -29 27 0 54 26 47 45 -4 8 -7 15 -8
14 0 0 -14 -13 -31 -30z"/>
<path d="M1190 3362 c0 -23 4 -42 9 -42 6 0 7 17 4 38 -8 51 -13 53 -13 4z"/>
<path d="M5115 3142 c-8 -21 -7 -21 25 -9 17 6 30 14 30 18 0 13 -50 4 -55 -9z"/>
<path d="M585 3110 c3 -5 8 -10 11 -10 2 0 4 5 4 10 0 6 -5 10 -11 10 -5 0 -7
-4 -4 -10z"/>
<path d="M4955 3041 c4 -8 3 -16 -5 -21 -7 -5 2 -10 25 -14 40 -8 60 -1 29 10
-10 4 -28 14 -38 23 -13 11 -17 11 -11 2z"/>
<path d="M2406 3027 c3 -10 9 -15 12 -12 3 3 0 11 -7 18 -10 9 -11 8 -5 -6z"/>
<path d="M7356 2982 c-2 -4 -19 -9 -38 -10 -18 -1 -82 -11 -143 -21 -200 -35
-259 -44 -325 -47 -47 -2 -68 -8 -77 -21 -7 -9 -13 -11 -13 -5 0 15 -37 16
-42 2 -2 -6 -82 -24 -178 -41 -96 -17 -211 -37 -255 -45 -93 -16 -326 -51
-435 -64 -123 -15 -243 -37 -275 -50 -16 -6 -75 -18 -130 -26 -198 -27 -251
-35 -300 -45 -85 -17 -227 -36 -290 -38 -92 -2 -115 -9 -112 -33 1 -11 -5 -24
-13 -28 -8 -4 -32 -15 -52 -25 -21 -10 -38 -24 -38 -32 0 -7 -4 -13 -9 -13 -5
0 -7 -23 -5 -51 4 -51 29 -87 64 -89 8 -1 24 -4 35 -6 11 -3 45 -7 75 -9 30
-2 64 -5 75 -7 14 -2 21 3 23 20 3 16 10 22 28 22 24 0 32 -14 15 -24 -17 -11
1 -47 28 -58 14 -5 78 -11 141 -13 63 -1 128 -8 144 -14 32 -13 56 -1 56 28 1
13 4 12 18 -4 27 -33 50 -37 75 -15 29 28 42 20 40 -25 -2 -24 3 -45 13 -56
18 -20 79 -23 97 -5 19 20 57 26 57 10 0 -8 6 -11 15 -8 10 4 15 21 16 48 l1
41 9 -44 c5 -24 6 -48 3 -52 -3 -5 2 -6 10 -3 10 4 27 -6 45 -25 16 -17 34
-31 40 -31 6 0 11 -4 11 -10 0 -15 -87 -12 -93 3 -3 6 -6 -3 -6 -22 -1 -33 0
-34 14 -15 13 16 14 16 9 1 -5 -13 -2 -16 10 -11 9 3 16 10 16 15 0 5 9 9 21
9 11 0 18 -4 14 -9 -3 -5 7 -19 22 -31 31 -24 79 -24 77 1 -1 9 7 15 20 15 17
-1 20 4 18 27 -3 20 1 27 13 27 13 0 16 -6 11 -24 -3 -14 -2 -28 4 -31 5 -3
10 -15 10 -26 0 -12 7 -19 19 -19 21 0 34 -13 24 -24 -3 -3 -12 -1 -20 5 -10
9 -13 8 -13 -2 0 -8 -3 -25 -6 -39 -6 -21 -4 -23 7 -12 18 16 29 15 29 -3 0
-9 -10 -15 -22 -16 -13 0 -17 -3 -10 -6 7 -3 24 -16 38 -30 23 -22 31 -25 72
-19 51 7 60 12 65 41 2 11 7 28 11 37 5 10 1 26 -8 40 -23 33 -20 63 13 98 25
28 32 30 50 21 16 -9 21 -21 21 -51 0 -22 -4 -40 -9 -40 -11 0 -21 -61 -13
-75 4 -5 7 -16 9 -24 3 -25 54 -58 81 -53 17 3 23 1 18 -7 -4 -6 -1 -11 7 -11
8 0 17 -9 20 -19 4 -18 3 -19 -35 -5 -34 12 -40 12 -45 -2 -3 -8 -3 -17 -1
-20 10 -9 383 -11 395 -2 7 5 18 6 25 1 7 -4 31 -8 53 -9 48 -1 105 -13 105
-22 0 -4 14 -8 30 -9 20 -2 30 2 30 12 0 9 6 12 15 9 8 -4 12 -11 9 -18 -3 -6
0 -4 8 5 19 22 48 31 48 15 0 -8 10 -11 28 -8 18 2 36 -4 52 -17 20 -16 22
-20 8 -21 -12 0 -15 -5 -11 -16 4 -11 8 -12 13 -4 6 9 9 9 15 0 4 -6 18 -16
32 -21 21 -8 23 -12 13 -24 -8 -10 -21 -13 -33 -9 -11 4 -23 1 -28 -7 -6 -10
-42 -14 -131 -16 -67 -2 -148 -8 -180 -13 -31 -6 -60 -10 -65 -9 -18 3 -46 -1
-41 -7 3 -3 30 -11 60 -19 29 -7 85 -25 123 -39 95 -35 109 -34 102 4 -6 25
-3 30 14 30 11 0 17 -4 14 -10 -3 -6 4 -10 18 -10 13 0 27 -3 31 -7 3 -4 21
-7 39 -7 27 -1 32 -5 35 -27 4 -39 32 -59 125 -91 77 -27 309 -98 321 -98 3 0
6 331 6 735 0 518 -3 735 -11 735 -7 0 -9 28 -7 80 2 57 -1 81 -9 85 -22 8
-16 45 7 45 11 0 20 4 20 9 0 11 -137 14 -144 3z m-327 -180 c12 -42 19 -85
16 -94 -4 -9 -2 -19 4 -23 7 -4 11 6 11 26 0 33 43 119 60 119 5 0 12 -5 15
-10 4 -6 14 -8 24 -5 9 3 26 -2 37 -10 10 -8 27 -15 36 -15 9 0 23 -6 30 -12
7 -7 28 -13 46 -13 17 0 32 -4 32 -10 -1 -15 -110 -5 -137 12 -19 12 -26 13
-38 3 -25 -20 -19 -43 9 -38 31 6 100 -31 104 -56 3 -14 -1 -18 -14 -14 -34
10 -39 10 -66 9 -30 -1 -40 -24 -25 -58 7 -15 6 -27 -2 -36 -12 -15 -5 -73 10
-93 6 -7 1 -18 -11 -29 -11 -10 -20 -26 -20 -35 0 -9 -9 -25 -20 -35 -19 -17
-20 -17 -30 9 -10 26 -35 44 -47 32 -3 -3 0 -13 7 -21 11 -13 9 -20 -10 -40
-20 -21 -22 -30 -14 -53 12 -34 42 -39 92 -17 61 27 67 31 70 55 l4 23 12 -24
c6 -13 19 -24 28 -24 9 0 20 -4 24 -8 4 -4 17 -7 28 -7 12 0 29 -9 39 -20 21
-25 38 -25 65 0 27 25 28 41 3 62 -14 12 -22 13 -30 5 -8 -8 -11 3 -11 39 0
28 -5 55 -12 62 -14 14 -50 16 -63 3 -14 -13 -65 -2 -65 14 0 7 9 15 20 18 12
3 20 14 20 26 0 40 38 22 115 -54 67 -67 75 -79 75 -113 -1 -53 -16 -112 -34
-130 -14 -14 -17 -14 -35 2 -19 17 -20 17 -31 -3 -6 -13 -21 -21 -36 -21 -18
0 -24 -4 -21 -14 3 -8 -8 -19 -29 -30 -44 -20 -40 -21 -47 14 -8 37 -21 38
-43 5 -9 -14 -33 -29 -54 -35 -22 -6 -41 -18 -43 -28 -3 -10 -5 -6 -6 11 -1
35 -22 35 -42 -1 -19 -33 -9 -75 16 -66 12 5 15 -2 15 -29 0 -20 5 -39 10 -42
6 -3 10 -21 10 -40 0 -31 -3 -34 -27 -32 -25 2 -28 -1 -28 -28 0 -23 -5 -31
-22 -33 -33 -5 -56 45 -41 88 12 37 -7 296 -24 318 -6 6 -23 12 -39 12 -36 0
-39 7 -30 66 5 33 3 65 -7 98 -20 70 8 122 45 85 19 -19 32 -1 26 36 -5 29 -2
35 11 35 14 0 17 -8 15 -37 -1 -21 3 -49 9 -63 l10 -25 7 33 c6 25 13 32 31
32 13 0 24 -4 24 -10 0 -13 42 4 80 32 17 12 26 24 21 27 -5 3 -11 17 -12 30
-4 27 -29 42 -29 17 0 -30 -59 -8 -61 22 -1 18 0 19 -21 -37 -17 -45 -32 -5
-37 101 -5 85 -9 102 -21 99 -39 -10 -55 -5 -58 17 -2 12 2 24 10 26 7 2 27 8
43 14 49 16 50 15 74 -66z m-249 28 c13 -9 12 -12 -4 -25 -25 -19 -66 -20 -66
0 0 14 26 34 45 35 6 0 17 -5 25 -10z m70 -16 c0 -8 -8 -14 -18 -14 -25 0 -34
11 -21 26 13 15 39 7 39 -12z m-208 -64 c23 -92 22 -100 -7 -100 -14 0 -25 5
-25 10 0 6 -4 10 -10 10 -5 0 -10 -8 -10 -19 0 -10 -7 -24 -16 -32 -13 -10
-17 -10 -25 2 -5 8 -9 24 -9 36 0 17 7 22 33 25 30 3 32 5 28 38 -1 19 -7 43
-13 53 -13 25 -2 49 19 45 13 -2 23 -22 35 -68z m-106 38 c9 -13 -25 -40 -43
-34 -7 3 -15 1 -18 -4 -3 -5 -15 -6 -28 -1 -12 4 -28 6 -35 3 -9 -3 -13 2 -10
14 2 13 15 21 43 25 66 10 83 10 91 -3z m-286 -44 c0 -8 -1 -14 -2 -15 -2 0
-22 -2 -45 -5 -32 -4 -43 -2 -43 9 0 21 7 24 50 24 27 0 40 -4 40 -13z m84 0
c14 -38 1 -64 -33 -64 -8 0 -5 37 4 68 6 17 22 15 29 -4z m-239 -36 c7 -18 15
-64 16 -103 4 -65 2 -70 -16 -70 -13 0 -21 8 -23 22 -2 12 -10 27 -17 33 -11
9 -12 17 -4 32 21 39 8 53 -51 53 -48 0 -55 2 -55 20 0 16 11 22 55 32 79 16
80 16 95 -19z m755 -7 c0 -10 -7 -22 -16 -25 -23 -9 -24 -8 -24 19 0 18 5 25
20 25 13 0 20 -7 20 -19z m590 4 c0 -8 -9 -19 -20 -25 -15 -8 -20 -8 -20 3 0
14 19 37 32 37 4 0 8 -7 8 -15z m-1553 -7 c21 -26 25 -85 7 -102 -19 -19 -80
-18 -96 1 -9 11 -4 16 21 26 37 14 42 36 6 29 -29 -5 -56 13 -49 33 9 23 95
33 111 13z m-176 -18 c10 -6 19 -19 19 -29 0 -10 9 -26 19 -35 17 -16 18 -20
4 -46 -8 -16 -19 -32 -24 -36 -6 -4 -4 -15 5 -30 17 -25 21 -54 8 -54 -5 0 -7
-13 -4 -30 3 -18 0 -30 -7 -30 -6 0 -11 10 -11 23 0 35 -16 44 -63 37 -29 -4
-41 -10 -39 -20 1 -11 -2 -9 -12 3 -14 18 -15 18 -36 -3 -26 -26 -40 -18 -40
23 l0 32 -25 -28 c-22 -23 -29 -25 -46 -16 -25 13 -51 -5 -42 -28 5 -13 2 -15
-16 -10 -14 3 -24 0 -28 -9 -3 -8 -9 -11 -14 -8 -16 9 -10 42 10 56 10 7 19
16 19 21 4 26 35 67 52 67 10 0 21 8 23 18 3 11 5 7 6 -10 1 -25 3 -26 59 -26
37 0 63 6 75 16 14 13 21 13 41 3 35 -19 62 -10 58 19 -2 14 -4 39 -5 55 -2
24 -7 31 -27 33 -46 5 -54 11 -40 27 6 7 21 16 33 18 12 2 23 5 25 6 2 0 12
-4 23 -9z m552 -7 c-7 -2 -19 -2 -25 0 -7 3 -2 5 12 5 14 0 19 -2 13 -5z m117
-14 c0 -11 -27 -12 -34 0 -3 4 -3 11 0 14 8 8 34 -3 34 -14z m-790 -25 c5 -11
4 -27 -1 -35 -8 -11 -13 -10 -26 9 -8 12 -24 22 -34 22 -19 0 -25 11 -13 22 3
4 19 5 36 5 21 -1 33 -9 38 -23z m670 -10 c0 -8 -9 -14 -20 -14 -22 0 -26 10
-8 28 13 13 28 7 28 -14z m-797 2 c11 -28 -24 -36 -49 -12 -11 11 -11 16 -1
19 23 10 45 7 50 -7z m849 1 c-6 -7 -9 -23 -5 -35 6 -24 -12 -52 -33 -52 -16
0 -18 22 -5 48 5 9 12 25 15 35 3 9 13 17 22 17 12 0 14 -3 6 -13z m516 -4
c-3 -19 -33 -53 -47 -53 -9 0 -24 -60 -16 -68 2 -3 16 3 29 12 31 20 44 4 23
-28 -12 -18 -13 -32 -6 -62 7 -27 7 -48 0 -67 -11 -29 -34 -38 -24 -9 5 14 4
14 -9 -2 -12 -15 -29 -19 -79 -20 l-64 -1 -1 55 c0 30 -6 65 -12 77 -21 38
-15 89 13 111 14 11 25 25 25 31 0 5 9 15 21 22 18 9 25 7 49 -16 31 -29 46
-27 60 11 11 27 42 33 38 7z m424 -23 c-3 -33 -10 -37 -29 -18 -19 20 -10 51
14 46 12 -3 17 -12 15 -28z m-1252 -10 c0 -4 -7 -13 -15 -20 -13 -11 -15 -8
-15 13 0 19 4 25 15 21 8 -4 15 -10 15 -14z m-320 3 c0 -17 -19 -35 -29 -29
-18 12 -12 36 9 36 11 0 20 -3 20 -7z m1159 -29 c-6 -8 -15 -14 -20 -14 -14 0
-11 28 4 33 20 7 29 -4 16 -19z m-253 -8 c5 -14 -35 -90 -44 -82 -10 10 -10
60 -1 78 11 21 37 24 45 4z m-658 -28 c-4 -27 -23 -34 -32 -13 -8 21 1 35 20
35 10 0 14 -8 12 -22z m-848 -38 c0 -5 -4 -10 -10 -10 -5 0 -10 5 -10 10 0 6
5 10 10 10 6 0 10 -4 10 -10z m235 -50 c-22 -25 -33 -12 -27 31 l5 31 20 -21
c20 -20 20 -21 2 -41z m-97 38 c17 -17 15 -103 -3 -118 -8 -6 -23 -9 -35 -5
-17 5 -20 12 -15 32 5 20 3 24 -9 20 -11 -5 -18 2 -22 21 -3 15 -8 35 -11 45
-4 14 3 17 39 17 24 0 49 -5 56 -12z m-460 -47 c-2 -9 -11 -17 -21 -19 -12 -3
-17 3 -17 21 0 20 4 24 20 20 12 -3 20 -12 18 -22z m126 13 c9 -22 8 -24 -9
-24 -8 0 -15 9 -15 20 0 24 15 27 24 4z m1020 1 c-6 -16 -34 -21 -34 -7 0 13
11 22 26 22 8 0 11 -6 8 -15z m-584 -66 c0 -10 -7 -19 -15 -19 -16 0 -19 9 -9
34 8 20 24 11 24 -15z m1870 11 c0 -5 -5 -10 -11 -10 -5 0 -7 5 -4 10 3 6 8
10 11 10 2 0 4 -4 4 -10z m70 -27 c0 -20 -3 -24 -11 -16 -7 7 -9 19 -6 27 10
24 17 19 17 -11z m-1045 -12 c3 -5 -6 -18 -20 -30 -19 -14 -25 -27 -23 -48 3
-25 0 -28 -22 -25 -52 6 -65 52 -14 52 18 0 24 5 24 23 0 13 3 27 7 30 9 10
41 8 48 -2z m110 -31 c0 -7 -6 -15 -12 -17 -8 -3 -13 4 -13 17 0 13 5 20 13
18 6 -3 12 -11 12 -18z m-997 -27 c-5 -25 -28 -28 -28 -4 0 12 6 21 16 21 9 0
14 -7 12 -17z m619 -105 c-3 -8 -6 -5 -6 6 -1 11 2 17 5 13 3 -3 4 -12 1 -19z
m310 -63 c3 -29 0 -35 -17 -35 -24 0 -26 18 -4 48 8 12 16 22 17 22 1 0 3 -16
4 -35z m-407 -20 c0 -14 5 -25 10 -25 6 0 10 -9 10 -19 0 -12 -10 -21 -27 -26
-21 -5 -32 -1 -52 21 -14 15 -21 24 -15 21 20 -11 64 16 58 36 -3 9 -1 17 5
17 6 0 11 -11 11 -25z m298 0 c2 -27 -7 -32 -26 -13 -18 18 -15 38 6 38 12 0
18 -8 20 -25z m1072 21 c0 -3 -4 -8 -10 -11 -5 -3 -10 -1 -10 4 0 6 5 11 10
11 6 0 10 -2 10 -4z m-1190 -33 c0 -21 -3 -24 -9 -14 -5 8 -7 20 -4 28 8 21
13 15 13 -14z m-100 7 c13 -8 13 -10 -2 -10 -9 0 -20 5 -23 10 -8 13 5 13 25
0z m370 -42 c0 -18 -9 -44 -20 -58 -18 -23 -20 -24 -36 -8 -19 19 -12 68 10
68 7 0 19 7 26 15 18 21 20 19 20 -17z m80 -4 c0 -19 -4 -33 -8 -30 -8 5 -4
66 4 66 2 0 4 -16 4 -36z m1037 14 c-3 -8 -6 -5 -6 6 -1 11 2 17 5 13 3 -3 4
-12 1 -19z m-847 -67 c0 -11 -26 -22 -34 -14 -12 12 -5 23 14 23 11 0 20 -4
20 -9z m340 -37 c0 -8 -5 -12 -10 -9 -6 4 -8 11 -5 16 9 14 15 11 15 -7z m449
4 c-1 -7 1 -21 5 -30 10 -22 0 -52 -14 -43 -11 7 -13 45 -4 69 7 19 16 21 13
4z m69 -26 c4 -23 -4 -27 -26 -14 -15 10 -5 45 12 39 6 -2 12 -13 14 -25z
m-798 -18 c0 -9 -11 -14 -35 -14 -43 0 -49 27 -7 32 33 5 42 1 42 -18z m610
-8 c0 -3 -4 -8 -10 -11 -5 -3 -10 -1 -10 4 0 6 5 11 10 11 6 0 10 -2 10 -4z
m-403 -88 c-3 -8 -6 -5 -6 6 -1 11 2 17 5 13 3 -3 4 -12 1 -19z m40 -50 c-2
-13 -4 -5 -4 17 -1 22 1 32 4 23 2 -10 2 -28 0 -40z m483 -178 c0 -5 -13 -16
-30 -25 -29 -15 -42 -45 -19 -45 5 0 7 -4 4 -10 -3 -5 -20 -10 -36 -10 -22 0
-32 7 -41 25 -14 30 6 59 34 51 11 -2 34 2 51 9 39 17 37 17 37 5z m-209 -43
c-13 -13 -26 -3 -16 12 3 6 11 8 17 5 6 -4 6 -10 -1 -17z"/>
<path d="M6965 2441 c-3 -11 -15 -23 -26 -26 -25 -8 -25 -25 0 -25 20 0 51 35
51 57 0 20 -18 15 -25 -6z"/>
<path d="M7381 2404 c0 -11 3 -14 6 -6 3 7 2 16 -1 19 -3 4 -6 -2 -5 -13z"/>
<path d="M7009 2223 c-8 -10 -20 -29 -27 -42 -11 -19 -11 -22 0 -19 14 5 53
66 46 74 -3 2 -11 -4 -19 -13z"/>
<path d="M6710 2515 c0 -8 7 -15 15 -15 9 0 12 6 9 15 -4 8 -10 15 -15 15 -5
0 -9 -7 -9 -15z"/>
<path d="M6743 2449 c-12 -4 -27 -17 -33 -28 -9 -18 -8 -21 8 -21 21 0 56 34
51 48 -3 6 -13 6 -26 1z"/>
<path d="M0 2950 c0 -5 12 -13 28 -16 15 -4 32 -11 39 -16 7 -5 21 -7 32 -3
13 4 27 -1 39 -13 29 -29 53 -34 74 -16 14 14 23 15 41 6 12 -6 32 -14 44 -17
13 -4 23 -14 23 -25 0 -22 25 -33 48 -20 9 5 29 11 43 14 29 6 79 42 79 57 0
5 -7 9 -16 9 -8 0 -12 5 -9 10 4 7 13 6 27 -1 16 -8 22 -8 28 2 6 8 33 12 87
12 136 0 169 -3 155 -12 -10 -6 -10 -10 3 -21 10 -8 15 -9 15 -1 0 7 21 11 54
11 51 0 116 24 116 42 0 4 -147 5 -327 2 -181 -2 -348 -5 -373 -5 -25 -1 -91
1 -147 4 -60 4 -103 2 -103 -3z m827 -26 c-3 -3 -12 -4 -19 -1 -8 3 -5 6 6 6
11 1 17 -2 13 -5z"/>
<path d="M1250 2941 c0 -5 -2 -15 -5 -23 -3 -7 -1 -19 4 -27 7 -10 13 -11 30
-2 25 14 28 46 5 55 -22 9 -34 7 -34 -3z"/>
<path d="M4546 2897 c3 -10 9 -15 12 -12 3 3 0 11 -7 18 -10 9 -11 8 -5 -6z"/>
<path d="M4714 2885 c-3 -8 -3 -19 1 -25 3 -5 1 -10 -5 -10 -6 0 -9 -4 -5 -9
3 -5 0 -13 -6 -17 -11 -7 -29 12 -29 31 0 6 5 3 10 -5 8 -12 10 -11 10 8 0 17
-6 22 -27 22 -16 0 -35 -5 -43 -11 -12 -8 -11 -9 5 -7 14 2 21 -3 23 -19 3
-20 -1 -23 -28 -23 -29 0 -31 -2 -28 -31 l3 -32 72 -4 73 -5 -2 76 c-1 71 -11
96 -24 61z"/>
<path d="M1531 2869 c-1 -15 7 -37 18 -50 l18 -22 5 26 c4 19 1 27 -9 27 -7 0
-18 10 -23 23 -9 21 -9 21 -9 -4z"/>
<path d="M1890 2845 c0 -8 5 -15 10 -15 6 0 10 7 10 15 0 8 -4 15 -10 15 -5 0
-10 -7 -10 -15z"/>
<path d="M4291 2834 c0 -11 3 -14 6 -6 3 7 2 16 -1 19 -3 4 -6 -2 -5 -13z"/>
<path d="M6 2831 c-11 -17 7 -72 26 -82 23 -12 58 -3 58 16 0 7 -11 20 -24 28
-13 9 -30 23 -39 31 -9 9 -18 12 -21 7z"/>
<path d="M910 2799 c-44 -38 -45 -39 -17 -39 15 0 27 5 27 10 0 6 14 10 30 10
32 0 38 15 18 42 -12 15 -18 13 -58 -23z"/>
<path d="M4320 2830 c0 -5 5 -10 11 -10 5 0 7 5 4 10 -3 6 -8 10 -11 10 -2 0
-4 -4 -4 -10z"/>
<path d="M1630 2811 c0 -5 7 -14 15 -21 13 -10 15 -9 15 9 0 12 -6 21 -15 21
-8 0 -15 -4 -15 -9z"/>
<path d="M1730 2801 c0 -12 5 -21 10 -21 6 0 10 6 10 14 0 8 -4 18 -10 21 -5
3 -10 -3 -10 -14z"/>
<path d="M2016 2745 c4 -9 19 -15 38 -15 l31 0 -29 15 c-36 19 -47 19 -40 0z"/>
<path d="M605 2703 c-20 -33 -32 -66 -35 -102 -5 -49 -8 -55 -38 -72 -39 -20
-69 -70 -78 -130 -6 -34 -19 -53 -66 -99 -44 -43 -57 -62 -51 -76 10 -26 68
-76 117 -99 46 -23 47 -25 31 -172 l-8 -71 40 -11 c59 -16 66 -29 62 -119 l-4
-79 32 26 c23 18 33 35 33 53 0 36 32 55 54 32 9 -8 16 -22 16 -29 0 -11 6
-12 30 -4 17 6 30 15 30 20 0 5 15 15 34 23 18 8 36 19 40 24 3 6 8 93 10 194
4 170 6 183 23 186 13 2 23 -6 31 -23 6 -14 18 -25 27 -25 19 0 19 9 -2 32
-15 17 -15 21 -2 46 19 33 14 59 -12 67 -27 9 -39 -4 -16 -16 21 -12 22 -45 1
-53 -25 -10 -33 -7 -44 13 -7 15 -6 24 6 36 15 14 15 18 1 33 -8 9 -21 42 -28
72 -8 30 -22 64 -32 75 -18 20 -18 20 7 23 14 2 26 7 26 11 0 20 -30 31 -80
30 -47 -2 -57 2 -77 25 -26 30 -29 45 -10 47 6 1 19 2 27 3 11 1 16 15 18 52
3 48 1 53 -32 77 -19 15 -38 27 -43 27 -4 0 -21 -21 -38 -47z"/>
<path d="M2310 2740 c0 -5 5 -10 11 -10 5 0 7 5 4 10 -3 6 -8 10 -11 10 -2 0
-4 -4 -4 -10z"/>
<path d="M2129 2708 c-12 -17 -18 -19 -36 -9 -16 8 -22 8 -26 -2 -3 -9 -9 -9
-26 0 -18 11 -21 10 -26 -10 -3 -12 -4 -94 -3 -182 3 -158 3 -160 26 -163 15
-2 30 5 43 22 14 18 30 26 52 26 l32 0 -3 170 c-2 93 -6 170 -10 170 -4 -1
-14 -10 -23 -22z"/>
<path d="M4683 2552 c-36 -4 -36 -3 -27 -26 8 -22 26 -20 47 5 22 25 21 25
-20 21z"/>
<path d="M150 2498 c0 -10 71 -111 85 -120 5 -4 45 -8 88 -8 l77 0 -27 43
c-53 83 -57 85 -144 89 -44 2 -79 0 -79 -4z"/>
<path d="M4541 2455 c0 -35 1 -37 10 -17 6 15 5 30 -1 40 -7 13 -9 8 -9 -23z"/>
<path d="M1555 2299 c-9 -24 -1 -129 10 -129 6 0 10 13 10 29 0 48 14 48 54 1
21 -24 40 -39 43 -34 6 8 11 96 9 132 -2 29 -21 -2 -21 -34 0 -19 -5 -34 -11
-34 -6 0 -28 19 -49 43 -31 33 -40 39 -45 26z"/>
<path d="M1775 2298 c-44 -121 -45 -135 -10 -112 19 12 23 20 15 29 -11 14 -3
45 11 45 5 0 14 -10 18 -22 8 -20 10 -21 16 -6 7 18 -20 78 -36 78 -5 0 -12
-6 -14 -12z"/>
<path d="M2032 2290 c-7 -11 -12 -25 -12 -32 0 -7 7 0 15 16 18 33 15 45 -3
16z"/>
<path d="M980 2291 c0 -5 9 -11 19 -14 16 -4 20 -15 23 -63 2 -35 8 -59 16
-62 9 -3 12 13 12 58 0 53 3 63 20 67 39 10 19 23 -35 23 -30 0 -55 -4 -55 -9z"/>
<path d="M1131 2239 c-27 -81 -28 -98 -3 -76 23 21 56 22 72 2 26 -32 30 3 8
66 -31 87 -50 88 -77 8z m55 -10 c10 -17 -13 -36 -27 -22 -12 12 -4 33 11 33
5 0 12 -5 16 -11z"/>
<path d="M1281 2243 c-14 -69 -14 -93 -1 -93 6 0 10 9 10 19 0 56 29 68 48 19
l12 -33 18 35 c21 44 36 45 40 3 2 -20 9 -33 17 -33 15 0 15 2 -4 99 -9 45
-29 51 -42 12 -14 -39 -33 -40 -49 -1 -19 46 -36 36 -49 -27z"/>
<path d="M1480 2230 c0 -40 4 -70 10 -70 6 0 10 30 10 70 0 40 -4 70 -10 70
-6 0 -10 -30 -10 -70z"/>
<path d="M0 2193 c0 -55 4 -93 9 -87 8 9 99 145 115 172 5 9 -9 12 -58 12
l-66 0 0 -97z"/>
<path d="M1852 2239 c-19 -7 -21 -12 -12 -29 6 -11 8 -25 5 -30 -3 -6 -2 -10
3 -10 11 0 36 55 31 68 -3 6 -13 6 -27 1z"/>
<path d="M5493 2053 c-25 -10 -14 -33 16 -33 24 0 41 14 41 36 0 5 -42 4 -57
-3z"/>
<path d="M5591 2052 c-19 -6 -2 -22 25 -22 14 0 24 6 24 14 0 14 -22 17 -49 8z"/>
<path d="M1423 1968 c-14 -17 -27 -76 -15 -63 10 10 34 75 28 75 -2 0 -8 -6
-13 -12z"/>
<path d="M1286 1923 c-6 -14 -5 -15 5 -6 7 7 10 15 7 18 -3 3 -9 -2 -12 -12z"/>
<path d="M5777 1923 c-4 -3 -7 -17 -7 -30 0 -20 3 -23 28 -17 36 9 35 9 20 33
-13 21 -29 27 -41 14z"/>
<path d="M1260 1870 c-6 -12 -9 -24 -7 -27 3 -2 11 5 17 17 6 12 9 24 7 27 -3
2 -11 -5 -17 -17z"/>
<path d="M983 1850 c-18 -11 -33 -25 -33 -32 0 -6 3 -8 6 -5 4 3 14 2 24 -3
30 -16 60 -1 60 31 0 34 -13 36 -57 9z"/>
<path d="M6040 1760 c0 -5 7 -10 15 -10 8 0 15 5 15 10 0 6 -7 10 -15 10 -8 0
-15 -4 -15 -10z"/>
<path d="M6005 1610 c4 -6 -31 -10 -98 -10 -109 0 -125 -7 -111 -45 4 -8 -1
-31 -11 -51 -25 -54 -16 -66 47 -58 29 4 60 10 69 15 9 5 18 7 21 6 4 -2 -29
27 -56 50 -15 12 -16 17 -5 24 21 13 76 11 116 -6 42 -18 46 -18 38 -5 -3 5 2
17 12 27 10 10 19 28 20 41 1 17 -4 22 -23 22 -14 0 -22 -4 -19 -10z"/>
<path d="M6210 1606 c0 -2 7 -17 15 -32 9 -17 13 -40 9 -56 -3 -16 -1 -28 4
-28 5 0 9 -12 8 -26 -1 -29 -1 -29 157 -103 60 -28 117 -51 127 -51 16 0 21
10 26 51 4 29 15 60 24 69 13 13 15 21 7 29 -8 8 -6 11 7 11 11 0 24 -7 30
-16 12 -15 46 -10 46 7 0 14 -41 31 -63 25 -11 -3 -25 1 -31 9 -15 19 -126 55
-126 41 0 -6 -4 -5 -9 3 -10 15 -136 52 -146 43 -2 -3 0 -11 6 -19 9 -10 8
-13 -5 -13 -9 0 -21 11 -25 24 -5 13 -17 26 -26 30 -19 7 -35 8 -35 2z m117
-68 c-3 -8 -6 -5 -6 6 -1 11 2 17 5 13 3 -3 4 -12 1 -19z m63 -122 c0 -8 -5
-18 -11 -22 -14 -8 -33 11 -25 25 10 16 36 13 36 -3z"/>
<path d="M6048 1543 c6 -2 18 -2 25 0 6 3 1 5 -13 5 -14 0 -19 -2 -12 -5z"/>
<path d="M5550 1458 c0 -9 -8 -18 -18 -20 -10 -3 -19 -13 -19 -22 0 -21 3 -20
35 9 21 19 24 27 14 37 -9 9 -12 9 -12 -4z"/>
<path d="M6750 1416 c-7 -14 -9 -32 -5 -43 7 -16 9 -15 16 7 6 20 8 16 6 -18
-2 -42 0 -45 36 -59 57 -23 82 -7 82 54 l0 46 -50 18 c-66 23 -69 23 -85 -5z
m72 -71 c0 -5 -5 -11 -11 -13 -6 -2 -11 4 -11 13 0 9 5 15 11 13 6 -2 11 -8
11 -13z"/>
<path d="M6594 1422 c3 -5 17 -12 32 -15 30 -5 20 8 -15 18 -15 4 -21 3 -17
-3z"/>
<path d="M5750 1370 c0 -5 7 -10 16 -10 8 0 12 5 9 10 -3 6 -10 10 -16 10 -5
0 -9 -4 -9 -10z"/>
<path d="M6630 1335 c0 -15 4 -24 10 -20 6 3 10 12 10 20 0 8 -4 17 -10 20 -6
4 -10 -5 -10 -20z"/>
<path d="M5638 1333 c7 -3 16 -2 19 1 4 3 -2 6 -13 5 -11 0 -14 -3 -6 -6z"/>
<path d="M7084 1315 c11 -8 30 -15 42 -15 12 0 29 -3 38 -6 10 -4 16 -1 16 9
0 15 -41 27 -89 27 -25 -1 -25 -1 -7 -15z"/>
<path d="M5495 1290 c-3 -5 1 -10 9 -10 9 0 16 5 16 10 0 6 -4 10 -9 10 -6 0
-13 -4 -16 -10z"/>
<path d="M7233 1269 c-4 -4 -39 -9 -78 -11 -57 -2 -69 -6 -65 -18 2 -8 6 -51
10 -95 5 -78 6 -80 35 -89 17 -5 37 -11 45 -14 8 -3 19 -4 23 -3 5 1 6 -3 2
-9 -3 -6 13 -19 38 -29 24 -11 68 -30 98 -44 68 -32 150 -67 155 -67 2 0 4 13
4 29 0 22 -5 30 -20 33 -12 2 -21 6 -20 11 0 4 0 18 0 32 0 35 15 31 28 -7 8
-27 10 -11 11 88 l1 122 -40 16 c-59 23 -79 21 -77 -8 1 -14 -2 -26 -8 -28 -5
-2 -11 14 -13 34 -3 34 -7 38 -40 47 -72 18 -80 19 -89 10z m47 -143 c0 -8 -5
-18 -11 -22 -14 -8 -33 11 -25 25 10 16 36 13 36 -3z"/>
<path d="M6763 1238 c3 -15 14 -27 33 -33 16 -5 40 -18 54 -27 13 -10 30 -18
37 -18 18 0 16 19 -2 26 -11 5 -12 10 -2 24 16 26 3 35 -48 32 -24 -1 -47 3
-50 8 -11 18 -25 10 -22 -12z"/>
<path d="M5970 1195 c0 -8 5 -15 10 -15 6 0 10 7 10 15 0 8 -4 15 -10 15 -5 0
-10 -7 -10 -15z"/>
<path d="M5889 1113 c-18 -7 -39 -11 -46 -9 -19 8 -43 -4 -43 -20 0 -16 9 -18
29 -5 8 5 24 6 37 1 25 -10 95 9 101 27 6 17 -43 21 -78 6z"/>
<path d="M5670 1094 c-10 -11 -9 -14 8 -14 25 0 37 16 18 23 -8 3 -20 -1 -26
-9z"/>
<path d="M63 1046 c5 -14 3 -17 -8 -12 -8 3 -15 1 -15 -4 0 -6 9 -10 20 -10
22 0 27 24 8 36 -8 5 -9 2 -5 -10z"/>
<path d="M5677 1024 c-13 -13 -7 -24 14 -24 11 0 19 5 17 12 -5 14 -22 21 -31
12z"/>
<path d="M5805 1020 c3 -5 10 -10 16 -10 5 0 9 5 9 10 0 6 -7 10 -16 10 -8 0
-12 -4 -9 -10z"/>
<path d="M5732 1008 c2 -6 10 -14 16 -16 7 -2 10 2 6 12 -7 18 -28 22 -22 4z"/>
<path d="M5765 1010 c4 -6 11 -8 16 -5 14 9 11 15 -7 15 -8 0 -12 -5 -9 -10z"/>
<path d="M5785 880 c-24 -4 -26 -7 -13 -12 19 -8 68 5 52 14 -5 2 -22 2 -39
-2z"/>
<path d="M5825 830 c4 -6 11 -8 16 -5 14 9 11 15 -7 15 -8 0 -12 -5 -9 -10z"/>
<path d="M5925 650 c3 -5 10 -10 16 -10 5 0 9 5 9 10 0 6 -7 10 -16 10 -8 0
-12 -4 -9 -10z"/>
<path d="M5758 498 c6 -6 18 -8 28 -6 14 3 12 5 -9 10 -19 3 -25 2 -19 -4z"/>
<path d="M5693 483 c9 -2 23 -2 30 0 6 3 -1 5 -18 5 -16 0 -22 -2 -12 -5z"/>
<path d="M6263 433 c9 -2 25 -2 35 0 9 3 1 5 -18 5 -19 0 -27 -2 -17 -5z"/>
<path d="M990 420 c0 -5 5 -10 11 -10 5 0 7 5 4 10 -3 6 -8 10 -11 10 -2 0 -4
-4 -4 -10z"/>
<path d="M6013 423 c9 -2 25 -2 35 0 9 3 1 5 -18 5 -19 0 -27 -2 -17 -5z"/>
<path d="M6188 423 c6 -2 18 -2 25 0 6 3 1 5 -13 5 -14 0 -19 -2 -12 -5z"/>
<path d="M5958 413 c6 -2 18 -2 25 0 6 3 1 5 -13 5 -14 0 -19 -2 -12 -5z"/>
<path d="M6123 413 c9 -2 23 -2 30 0 6 3 -1 5 -18 5 -16 0 -22 -2 -12 -5z"/>
<path d="M5888 403 c6 -2 18 -2 25 0 6 3 1 5 -13 5 -14 0 -19 -2 -12 -5z"/>
<path d="M6053 403 c9 -2 25 -2 35 0 9 3 1 5 -18 5 -19 0 -27 -2 -17 -5z"/>
<path d="M5823 393 c9 -2 23 -2 30 0 6 3 -1 5 -18 5 -16 0 -22 -2 -12 -5z"/>
<path d="M5978 393 c6 -2 18 -2 25 0 6 3 1 5 -13 5 -14 0 -19 -2 -12 -5z"/>
<path d="M5748 383 c6 -2 18 -2 25 0 6 3 1 5 -13 5 -14 0 -19 -2 -12 -5z"/>
<path d="M6073 383 c9 -2 25 -2 35 0 9 3 1 5 -18 5 -19 0 -27 -2 -17 -5z"/>
<path d="M5683 373 c9 -2 25 -2 35 0 9 3 1 5 -18 5 -19 0 -27 -2 -17 -5z"/>
<path d="M5848 373 c7 -3 16 -2 19 1 4 3 -2 6 -13 5 -11 0 -14 -3 -6 -6z"/>
<path d="M5998 373 c12 -2 30 -2 40 0 9 3 -1 5 -23 4 -22 0 -30 -2 -17 -4z"/>
<path d="M5565 360 c-27 -7 -28 -8 -5 -8 14 -1 43 3 65 7 l40 9 -35 0 c-19 0
-48 -4 -65 -8z"/>
<path d="M5788 363 c7 -3 16 -2 19 1 4 3 -2 6 -13 5 -11 0 -14 -3 -6 -6z"/>
<path d="M5933 363 c9 -2 23 -2 30 0 6 3 -1 5 -18 5 -16 0 -22 -2 -12 -5z"/>
<path d="M5708 353 c6 -2 18 -2 25 0 6 3 1 5 -13 5 -14 0 -19 -2 -12 -5z"/>
<path d="M5868 353 c6 -2 18 -2 25 0 6 3 1 5 -13 5 -14 0 -19 -2 -12 -5z"/>
<path d="M5643 343 c9 -2 23 -2 30 0 6 3 -1 5 -18 5 -16 0 -22 -2 -12 -5z"/>
<path d="M5803 343 c9 -2 23 -2 30 0 6 3 -1 5 -18 5 -16 0 -22 -2 -12 -5z"/>
<path d="M6306 338 c3 -5 10 -6 15 -3 13 9 11 12 -6 12 -8 0 -12 -4 -9 -9z"/>
<path d="M5583 333 c9 -2 23 -2 30 0 6 3 -1 5 -18 5 -16 0 -22 -2 -12 -5z"/>
<path d="M5733 333 c9 -2 23 -2 30 0 6 3 -1 5 -18 5 -16 0 -22 -2 -12 -5z"/>
<path d="M5513 323 c9 -2 23 -2 30 0 6 3 -1 5 -18 5 -16 0 -22 -2 -12 -5z"/>
<path d="M5673 323 c9 -2 23 -2 30 0 6 3 -1 5 -18 5 -16 0 -22 -2 -12 -5z"/>
<path d="M5593 313 c9 -2 25 -2 35 0 9 3 1 5 -18 5 -19 0 -27 -2 -17 -5z"/>
<path d="M5533 303 c9 -2 23 -2 30 0 6 3 -1 5 -18 5 -16 0 -22 -2 -12 -5z"/>
<path d="M5290 220 c-9 -6 -10 -10 -3 -10 6 0 14 -8 16 -17 3 -10 4 -6 4 10
-1 15 -2 27 -2 27 0 0 -7 -5 -15 -10z"/>
<path d="M6061 184 c0 -11 3 -14 6 -6 3 7 2 16 -1 19 -3 4 -6 -2 -5 -13z"/>
<path d="M5900 168 c0 -17 3 -19 9 -9 5 7 14 10 20 7 6 -4 11 -5 11 -2 0 3 -9
10 -20 16 -17 9 -20 8 -20 -12z"/>
<path d="M268 35 c13 -9 26 -14 29 -11 8 8 3 12 -27 21 l-25 7 23 -17z"/>
</g>
</svg>
